<svg version="1.1" id="Layer_1" xmlns="http://www.w3.org/2000/svg" xmlns:xlink="http://www.w3.org/1999/xlink" x="0px" y="0px"
	 width="100%" viewBox="0 0 504 500" enable-background="new 0 0 504 500" xml:space="preserve">
<path fill="#E8E84F" opacity="1.000000" stroke="none" 
	d="
M504.756409,114.716919 
	C505.000000,118.692909 505.000000,122.385818 505.000000,126.539368 
	C503.505096,130.613449 500.965485,133.459396 498.064728,135.943054 
	C494.949921,138.610031 494.432404,141.239914 496.382690,145.067780 
	C500.662994,153.468628 499.963165,161.844879 495.853516,170.358963 
	C490.527893,181.392181 474.516693,185.956543 463.487885,181.592484 
	C462.413239,181.167236 461.296265,180.776367 460.317291,180.149475 
	C457.487427,178.337372 454.998260,178.690842 452.814148,181.224289 
	C451.391937,182.873962 449.389008,183.858612 447.640015,185.731476 
	C446.832916,186.203720 446.317413,186.347519 445.364685,186.433136 
	C444.395935,186.481354 443.839539,186.494339 442.860413,186.514801 
	C441.271454,186.564178 440.129730,186.799149 438.977203,186.941254 
	C430.521973,187.983627 429.124512,187.254608 426.334595,179.186432 
	C422.269379,167.430420 413.520996,162.437668 403.367371,163.302826 
	C396.450867,163.892151 390.094543,166.355423 386.602997,173.197495 
	C386.070251,174.241425 385.394104,175.214615 384.589203,176.038406 
	C382.431976,178.246201 380.414001,177.772736 379.309601,174.877823 
	C378.946808,173.926849 378.908661,172.917221 378.915283,171.924088 
	C379.021820,155.960144 378.309875,139.988876 379.283142,123.606590 
	C378.969086,122.045143 378.934174,120.897141 379.107910,119.315903 
	C378.497498,104.126602 378.985168,89.353783 378.843933,74.585709 
	C378.829651,73.091324 378.827423,71.595596 378.907806,70.102974 
	C379.024719,67.932266 378.991394,65.412628 381.548981,64.749443 
	C384.230835,64.054024 385.294830,66.582497 386.292969,68.350929 
	C393.195587,80.580536 409.766785,82.152176 420.245056,73.114548 
	C423.956879,69.913048 425.687561,65.202393 426.812408,60.517845 
	C427.754242,56.595409 429.985992,54.909103 433.825775,54.908482 
	C437.141266,54.907944 440.465759,54.590977 444.173706,55.291832 
	C445.124939,55.464230 445.665527,55.549526 446.591278,55.731091 
	C447.421265,56.058922 447.857269,56.309689 448.186005,56.689625 
	C452.843109,62.072632 457.235657,63.042667 464.808075,60.287216 
	C480.782104,54.474533 498.168945,64.565483 499.087036,83.254005 
	C499.336273,88.327507 498.880859,93.235359 496.131012,97.645424 
	C494.179993,100.774338 495.035706,103.148941 497.538696,105.530968 
	C500.278809,108.138725 503.340729,110.568123 504.756409,114.716919 
z"/>
<path fill="#E8E84F" opacity="1.000000" stroke="none" 
	d="
M1.243260,255.281860 
	C1.000000,251.307098 1.000000,247.614182 1.000000,243.460632 
	C2.494913,239.386551 5.034547,236.540619 7.935300,234.056946 
	C11.050105,231.389999 11.567625,228.760086 9.617294,224.932220 
	C5.336991,216.531357 6.036814,208.155075 10.146451,199.641022 
	C15.472069,188.607788 31.483345,184.043411 42.512146,188.407547 
	C43.586815,188.832794 44.703796,189.223663 45.682758,189.850540 
	C48.512638,191.662674 51.001812,191.309021 53.185902,188.775650 
	C54.608135,187.125992 56.611046,186.141342 58.360043,184.268494 
	C59.167133,183.796234 59.682644,183.652481 60.635395,183.566833 
	C61.604118,183.518646 62.160503,183.505646 63.139618,183.485199 
	C64.728539,183.435837 65.870232,183.200836 67.022713,183.058762 
	C75.477974,182.016342 76.875816,182.745682 79.665253,190.813004 
	C83.729904,202.568405 92.476982,207.561829 102.631119,206.697174 
	C109.547142,206.108276 115.903854,203.645981 119.395866,196.804504 
	C119.928696,195.760590 120.604507,194.787354 121.409103,193.963379 
	C123.566322,191.754150 125.583969,192.225830 126.689522,195.119537 
	C127.052803,196.070389 127.091179,197.079941 127.084534,198.073029 
	C126.977791,214.036469 127.690918,230.007263 126.715492,246.388901 
	C127.030037,247.949783 127.063583,249.096237 126.866501,250.674194 
	C127.506599,266.061218 127.019753,281.034515 127.153374,296.002777 
	C127.166748,297.500793 127.161453,299.000122 127.062958,300.495697 
	C126.928337,302.539703 126.707703,304.734131 124.348557,305.312012 
	C122.138962,305.853241 121.182419,303.848877 120.167488,302.386139 
	C111.968697,290.569550 101.570145,288.176178 88.816559,294.728088 
	C83.453064,297.483459 81.729782,302.517609 79.743607,307.328339 
	C76.541832,315.083374 75.691513,315.861328 67.408806,315.004761 
	C66.417732,314.902222 65.457970,314.572296 64.027786,314.549316 
	C63.044861,314.511566 62.484867,314.497101 61.509712,314.474670 
	C60.550892,314.440369 60.011410,314.380219 59.104103,314.146118 
	C57.988712,313.603424 57.417896,312.977692 56.880661,312.360077 
	C52.568703,307.402954 48.428112,307.049591 41.804928,309.554993 
	C25.890177,315.575104 7.836566,305.764069 6.914042,286.798676 
	C6.666922,281.718323 7.103064,276.799194 9.861915,272.381165 
	C11.813867,269.255341 10.986185,266.872437 8.474850,264.478943 
	C5.732812,261.865601 2.659148,259.437317 1.243260,255.281860 
z"/>
<path fill="#E8E84F" opacity="1.000000" stroke="none" 
	d="
M504.756744,370.718140 
	C505.000000,374.692902 505.000000,378.385834 505.000000,382.539368 
	C503.506042,386.606018 500.982544,389.456543 498.080627,391.932800 
	C494.971680,394.585785 494.423492,397.206543 496.375946,401.036835 
	C500.648651,409.418854 499.968842,417.781586 495.888092,426.292633 
	C490.580658,437.362244 474.682190,441.916931 463.617523,437.646240 
	C462.541656,437.230957 461.417267,436.851868 460.448303,436.215515 
	C457.420197,434.226898 454.896240,434.806824 452.572876,437.463776 
	C451.156281,439.083679 449.155273,440.088318 447.383606,441.927826 
	C446.527710,442.307648 445.999786,442.423523 445.046967,442.550446 
	C441.014191,443.476501 437.341125,443.095642 433.683777,443.083466 
	C429.782501,443.070465 427.791168,441.175507 426.770142,437.315674 
	C424.742584,429.651031 420.917511,423.538910 412.747375,420.531860 
	C403.447083,417.108826 391.708588,420.557526 386.662018,429.109406 
	C386.151184,429.975098 385.569794,430.784851 384.963379,431.574432 
	C384.138184,432.648895 383.188019,433.698669 381.655792,433.338135 
	C379.960663,432.939301 379.421478,431.503784 379.082336,429.991394 
	C378.972992,429.503845 378.938477,429.000000 378.939575,428.501312 
	C378.975220,412.351074 378.358093,396.195984 379.246887,379.624512 
	C378.949799,378.057861 378.937744,376.908752 379.130951,375.330536 
	C378.496307,359.942871 378.978973,344.969208 378.846588,330.000488 
	C378.833344,328.502441 378.838654,327.003052 378.936890,325.507446 
	C379.071167,323.463501 379.290649,321.268860 381.648682,320.688629 
	C383.858795,320.144836 384.815338,322.149384 385.830688,323.611969 
	C394.035004,335.430115 404.430359,337.823242 417.182251,331.272461 
	C422.545990,328.517059 424.273224,323.484314 426.255798,318.672302 
	C429.501587,310.794342 430.181000,310.125793 438.590942,310.995239 
	C439.582062,311.097748 440.541870,311.427643 441.972076,311.450623 
	C442.955017,311.488403 443.514984,311.502869 444.490173,311.525330 
	C445.448975,311.559631 445.988434,311.619812 446.895752,311.853821 
	C448.011169,312.396515 448.581940,313.022278 449.119202,313.639893 
	C453.431183,318.596619 457.571655,318.950500 464.194977,316.445068 
	C480.109680,310.424805 498.163452,320.235931 499.085999,339.201294 
	C499.333130,344.281647 498.896973,349.200775 496.138153,353.618805 
	C494.186188,356.744659 495.013855,359.127502 497.525146,361.521057 
	C500.267151,364.134399 503.340881,366.562683 504.756744,370.718140 
z"/>
<path fill="#E29E47" opacity="1.000000" stroke="none" 
	d="
M257.290466,500.754456 
	C253.969406,501.000000 250.938812,501.000000 247.454102,501.000000 
	C243.385315,499.504364 240.534973,496.966827 238.053192,494.062408 
	C235.382843,490.937256 232.749634,490.443329 228.924377,492.389069 
	C220.517883,496.664948 212.113800,496.020477 203.629868,491.830627 
	C192.847092,486.505493 187.428131,471.547913 192.204773,461.001862 
	C195.754013,453.165649 193.671371,448.732819 188.403793,443.484802 
	C188.064499,442.636841 187.997543,442.121796 188.087921,441.208069 
	C190.078598,437.003876 193.470245,434.518982 196.499847,431.724335 
	C199.355789,429.089874 202.395035,430.244019 205.286072,431.698578 
	C208.857925,433.495697 212.386322,434.900391 216.573883,434.983093 
	C234.431854,435.335815 243.530106,417.125031 236.816238,403.352448 
	C232.868561,395.254303 233.021530,394.968506 239.209534,388.744354 
	C241.899780,386.038422 244.536911,383.276855 247.348389,380.695892 
	C248.942032,379.232880 250.574005,377.722504 253.373199,378.771149 
	C255.528458,381.114563 255.084946,383.710510 255.115173,386.165131 
	C255.195129,392.659729 255.137955,399.155670 255.144913,405.651093 
	C255.151855,412.120850 255.130234,418.590759 255.146118,425.163849 
	C265.407867,413.273346 280.944244,411.266724 293.720520,420.057404 
	C298.391327,423.271118 300.832642,428.178558 302.254089,433.217163 
	C303.505127,437.651581 305.510223,439.367950 309.882477,438.926727 
	C311.357086,438.777954 312.888428,438.931091 314.563599,439.956482 
	C317.236786,444.853088 313.002777,446.584625 310.788788,449.124908 
	C308.487396,451.765594 305.617767,452.626038 302.278870,450.966461 
	C297.660095,448.670807 293.073639,446.690887 287.613251,447.036102 
	C271.674408,448.043762 263.321594,463.705933 268.491364,476.666809 
	C272.272736,486.146881 275.079529,485.362793 264.771545,495.333557 
	C262.608459,497.425903 260.531494,499.550293 257.290466,500.754456 
z"/>
<path fill="#E29E47" opacity="1.000000" stroke="none" 
	d="
M242.717010,1.243499 
	C248.688034,1.000000 254.376083,1.000000 260.532043,1.000000 
	C261.954346,2.021886 263.382996,2.133715 264.509796,2.835131 
	C271.636902,7.271558 273.302216,11.687705 269.649933,18.488142 
	C264.341553,28.372076 267.403473,38.955700 273.276459,44.747219 
	C279.301147,50.688320 289.785187,53.583790 299.561615,48.349163 
	C307.166718,44.277130 314.852142,48.651531 315.256653,57.331596 
	C312.948456,59.531288 310.344452,59.054867 307.901794,59.142609 
	C305.306458,59.235844 303.786682,60.024330 302.918060,62.866024 
	C298.188293,78.339523 287.359955,85.398666 271.564178,82.846901 
	C265.113434,81.804817 259.370209,78.589836 255.145630,72.500786 
	C255.142380,85.400597 255.174591,97.886909 255.120682,110.372826 
	C255.109329,113.002502 255.524948,115.708206 254.061157,118.541046 
	C251.581268,120.709854 249.699951,119.387863 248.092422,117.940651 
	C243.894653,114.161461 239.962067,110.102783 236.079529,105.998444 
	C233.280334,103.039345 234.000519,99.885971 235.658905,96.797333 
	C237.815491,92.780792 239.116714,88.690887 238.961151,83.996223 
	C238.420761,67.687462 221.834518,59.070618 208.768616,64.679733 
	C198.630051,69.032143 198.653000,69.073555 190.976318,61.027176 
	C190.056458,60.063026 189.129166,59.114368 188.321106,57.574409 
	C188.027756,56.698799 187.983841,56.177940 188.118454,55.268890 
	C193.910797,49.417995 194.587463,44.218410 191.947281,35.922821 
	C186.702545,19.443689 198.055954,2.858897 216.571304,2.937896 
	C221.159607,2.957473 225.532867,3.373048 229.483383,5.769383 
	C232.555145,7.632685 235.097183,7.262141 237.384811,4.558694 
	C238.723221,2.977002 240.621796,2.298977 242.717010,1.243499 
z"/>
<path fill="#E3C747" opacity="1.000000" stroke="none" 
	d="
M188.867722,440.726227 
	C189.052994,441.496277 189.038818,441.920837 189.023087,442.663940 
	C191.024490,445.680756 191.164642,448.773529 191.104187,451.980225 
	C191.027374,456.053864 189.257309,458.162079 185.151001,459.236694 
	C178.293213,461.031372 172.275406,464.130157 169.205765,471.371277 
	C166.284546,478.262329 166.379532,484.735046 169.648605,491.434052 
	C171.057007,494.320160 173.966492,496.630920 173.230804,500.673218 
	C157.312439,501.000000 141.624878,501.000000 125.468658,501.000000 
	C122.760704,499.187714 122.879715,496.642181 122.871994,494.139221 
	C122.833664,481.721924 122.872681,469.304291 122.851608,456.723999 
	C112.847549,468.781219 96.445091,470.805573 83.922379,461.676422 
	C79.375778,458.361877 76.979630,453.434662 75.612106,448.383881 
	C74.421684,443.987152 72.184898,442.828094 68.220512,443.082642 
	C66.739380,443.177765 65.217911,443.089264 63.514973,442.122498 
	C60.519604,437.894897 63.951172,435.877319 66.033203,433.534668 
	C68.636185,430.605865 71.688309,428.955750 75.740105,430.854492 
	C80.366982,433.022797 84.841537,435.352997 90.340347,434.971039 
	C105.983818,433.884369 115.125290,417.373627 109.188690,404.795624 
	C108.342545,403.002869 107.399750,401.254059 106.676727,399.388092 
	C105.607208,396.627869 105.850319,394.132751 107.784218,391.951111 
	C111.528702,387.726929 115.551666,383.765289 119.727921,379.970581 
	C121.233482,378.602600 123.001877,377.642090 125.479294,378.834534 
	C127.535286,381.236725 127.105042,383.821106 127.116814,386.268646 
	C127.178986,399.203674 127.147690,412.139130 127.139084,425.355042 
	C131.518539,419.431824 137.349014,416.139038 144.206223,415.054535 
	C152.213730,413.788147 159.750412,415.483154 166.289108,420.490021 
	C170.989853,424.089539 173.232330,429.372223 174.829651,434.779602 
	C175.719116,437.790771 177.215027,438.744598 180.067871,438.868073 
	C182.976089,438.993896 186.115677,438.132355 188.867722,440.726227 
z"/>
<path fill="#E3C747" opacity="1.000000" stroke="none" 
	d="
M380.698914,378.768494 
	C381.007721,396.614197 381.007721,414.227600 381.007721,431.851105 
	C383.533539,432.122925 383.261688,430.162445 383.696259,429.238770 
	C390.313721,415.173706 410.070557,413.058075 421.571869,422.708313 
	C425.847626,426.295959 428.129883,431.490387 428.871552,436.926758 
	C429.331665,440.299347 430.659424,441.115570 433.630554,441.009491 
	C437.120422,440.884857 440.618988,441.001770 444.583923,441.038025 
	C445.428040,441.454498 445.758698,441.880432 446.183838,442.717529 
	C446.434265,444.918518 446.970947,446.680939 447.085785,448.506531 
	C447.559265,456.031952 446.854462,457.278564 439.641205,459.412811 
	C423.683746,464.134369 419.211426,481.145935 426.122742,492.326080 
	C427.599884,494.715576 430.128937,496.956848 429.230408,500.676422 
	C413.312439,501.000000 397.624878,501.000000 381.468658,501.000000 
	C378.761414,499.188110 378.877289,496.643341 378.872467,494.140778 
	C378.848572,481.723419 378.839050,469.306000 378.880188,456.698578 
	C368.827332,468.780731 352.464478,470.803314 339.934265,461.685303 
	C335.385071,458.374878 332.989807,453.450256 331.617279,448.401031 
	C330.427277,444.023163 328.221466,442.818634 324.241241,443.082733 
	C322.761414,443.180939 321.239319,443.093872 319.533691,442.137085 
	C316.692535,438.479736 319.374359,436.396912 321.332977,434.255493 
	C323.847992,431.505676 326.524658,428.975861 330.824402,430.494263 
	C333.186798,431.328522 335.343842,432.581360 337.634094,433.561096 
	C346.584229,437.389984 358.678711,433.031860 363.517426,424.610016 
	C367.887421,417.004028 368.109833,409.711670 363.891937,401.984589 
	C360.778442,396.280731 361.289612,394.378296 365.877838,389.636230 
	C368.767456,386.649750 371.691162,383.692749 374.717316,380.844513 
	C376.282623,379.371155 377.885681,377.791260 380.698914,378.768494 
z"/>
<path fill="#E3C747" opacity="1.000000" stroke="none" 
	d="
M445.327423,56.628868 
	C440.561859,56.992275 435.777802,56.090069 431.653748,57.349361 
	C426.813629,58.827305 428.442719,64.833649 426.561371,68.631584 
	C419.511047,82.864403 399.385345,84.941673 387.785828,74.862038 
	C384.973206,72.417953 384.425201,68.587479 381.017914,64.737213 
	C381.017914,83.356514 381.017914,100.709236 381.012939,118.530540 
	C378.867706,120.568390 377.147552,119.303864 375.672180,117.974876 
	C371.586914,114.294945 367.734741,110.367615 363.991333,106.338875 
	C361.300293,103.442657 361.795624,100.298286 363.299286,97.055275 
	C364.689026,94.058090 366.586792,91.280884 366.873352,87.820068 
	C368.104431,72.951454 356.805023,61.742779 341.981049,63.145275 
	C338.537323,63.471092 335.788116,65.454788 332.747894,66.750961 
	C325.884460,69.677162 318.423492,64.468346 318.807220,56.548073 
	C321.185394,54.464123 323.780701,54.938885 326.222137,54.859940 
	C328.875092,54.774139 330.266693,53.824356 331.107300,51.034103 
	C335.705750,35.769932 346.867218,28.550413 362.507263,31.161980 
	C368.950134,32.237812 374.690674,35.435383 378.842194,41.525547 
	C378.882721,30.155481 378.812500,19.142700 378.886536,8.131158 
	C378.901917,5.848078 378.532104,3.416708 380.735962,1.287528 
	C395.354218,1.000000 409.708466,1.000000 424.531342,1.000000 
	C426.976715,3.091495 426.224335,5.262513 425.209412,7.458879 
	C421.723175,15.003256 422.691132,22.099859 426.671387,29.294624 
	C429.553284,34.504005 434.480133,36.380360 439.315826,38.328701 
	C446.972748,41.413734 447.918518,42.516903 446.991272,50.608063 
	C446.859283,51.759651 446.481018,52.877728 446.390198,54.453979 
	C446.185455,55.395134 445.942139,55.881760 445.327423,56.628868 
z"/>
<path fill="#E3C747" opacity="1.000000" stroke="none" 
	d="
M189.269501,54.693695 
	C189.027283,55.442146 189.033173,55.867001 189.053070,56.610229 
	C187.141129,59.930206 184.035034,59.071423 181.339539,59.086388 
	C177.793610,59.106079 175.691086,59.855453 174.611725,63.940228 
	C171.987183,73.872627 165.419495,80.760880 155.270950,82.700264 
	C144.366547,84.784088 134.506287,82.090492 127.143936,72.691383 
	C127.142632,85.477013 127.173592,98.097641 127.124237,110.717972 
	C127.114563,113.193382 127.459305,115.731453 126.143219,118.438309 
	C123.574318,120.875580 121.488121,119.565598 119.723381,118.007103 
	C115.601929,114.367310 111.780067,110.405609 108.026939,106.385345 
	C105.337761,103.504745 105.762993,100.365646 107.266891,97.106819 
	C108.651161,94.107246 110.560867,91.332146 110.861641,87.877045 
	C112.155724,73.011696 100.863663,61.767162 86.020309,63.147507 
	C82.573296,63.468060 79.823952,65.446785 76.785835,66.746994 
	C69.892838,69.696960 62.482258,64.565414 62.785152,56.578476 
	C65.149643,54.466225 67.747047,54.941708 70.188889,54.860252 
	C72.823845,54.772354 74.253151,53.873554 75.100685,51.065365 
	C79.719460,35.761620 90.817802,28.570124 106.485550,31.158403 
	C112.936432,32.224079 118.669388,35.431641 122.842064,41.517719 
	C122.882706,30.145798 122.812569,19.138624 122.886551,8.132713 
	C122.901894,5.849216 122.531662,3.417258 124.735916,1.287556 
	C139.354233,1.000000 153.708450,1.000000 168.531342,1.000000 
	C170.962936,3.092329 170.264389,5.276388 169.216583,7.467230 
	C165.409744,15.426951 166.825027,22.916292 171.170258,30.192842 
	C173.955078,34.856323 178.787506,36.552689 183.357101,38.342701 
	C191.231033,41.427094 193.002975,44.851185 190.113342,53.001099 
	C189.945984,53.473114 189.754211,53.930294 189.269501,54.693695 
z"/>
<path fill="#E8E74F" opacity="1.000000" stroke="none" 
	d="
M380.531342,1.000000 
	C381.000000,16.671600 381.000000,32.343201 381.000000,48.014801 
	C380.492798,48.215076 379.985596,48.415352 379.478424,48.615631 
	C377.615356,40.633606 372.000488,36.763195 365.134338,34.042828 
	C356.403320,30.583549 340.441803,34.537235 336.642029,43.784454 
	C335.214447,47.258636 332.657990,50.252522 332.870880,54.366646 
	C332.985291,56.577370 331.234528,56.967579 329.413269,56.966846 
	C326.252625,56.965576 323.092010,56.977882 319.466003,56.989349 
	C318.622040,57.347378 318.203400,57.644180 317.364685,57.958282 
	C316.457367,58.011993 315.969330,57.863892 315.270630,57.290840 
	C313.322205,53.461071 309.957397,51.434071 307.478180,48.609657 
	C306.177368,47.127716 305.307770,48.221081 304.089996,48.668331 
	C299.409119,50.387493 295.336060,53.234940 289.790680,53.292732 
	C283.603210,53.357216 278.422058,51.274616 273.630280,48.328503 
	C268.538818,45.198128 266.095795,39.471596 265.187439,33.878483 
	C264.227600,27.968109 264.268188,21.770206 268.341461,16.388332 
	C270.449371,13.603244 270.628357,10.679961 267.176331,8.118905 
	C264.842834,6.387684 263.109344,3.847742 261.053711,1.334769 
	C300.687561,1.000000 340.375122,1.000000 380.531342,1.000000 
z"/>
<path fill="#E8E74F" opacity="1.000000" stroke="none" 
	d="
M124.531342,1.000000 
	C125.000000,16.671589 125.000000,32.343178 125.000000,48.014763 
	C124.492805,48.215042 123.985611,48.415321 123.478424,48.615601 
	C121.615173,40.633816 116.000549,36.763187 109.134392,34.042812 
	C100.403465,30.583612 84.441696,34.537292 80.642090,43.784416 
	C79.214554,47.258625 76.658096,50.252499 76.870926,54.366604 
	C76.985283,56.577290 75.234604,56.967575 73.413322,56.966835 
	C70.252686,56.965557 67.092049,56.977875 63.466042,56.989334 
	C62.592854,57.362053 62.154194,57.688492 61.291759,58.093655 
	C60.355732,58.270844 59.818260,58.238270 58.920494,57.960827 
	C58.279713,57.618729 57.994095,57.434261 57.778152,57.185226 
	C53.049770,51.732292 48.546032,51.099766 41.036797,53.769001 
	C24.979334,59.476788 7.660901,49.257591 6.902431,30.483265 
	C6.703999,25.571486 7.096617,20.798758 9.750742,16.538960 
	C11.833526,13.196146 10.885203,10.730035 8.242071,8.219959 
	C6.391840,6.462869 3.958882,4.812615 4.772666,1.301381 
	C44.687561,1.000000 84.375122,1.000000 124.531342,1.000000 
z"/>
<path fill="#DFB244" opacity="1.000000" stroke="none" 
	d="
M504.754730,244.710480 
	C505.000000,247.370560 505.000000,249.741104 505.000000,252.555832 
	C502.966705,257.933655 498.763428,261.066437 495.276367,264.807800 
	C492.206879,268.101105 488.880463,268.514557 484.955444,266.478241 
	C482.177979,265.037262 479.463287,263.401306 476.190186,263.130981 
	C468.083832,262.461517 460.669617,264.385193 455.779205,271.016846 
	C450.195709,278.588470 449.137085,287.007629 453.793060,295.814392 
	C457.661926,303.132385 453.523285,310.427277 444.865234,311.398163 
	C442.491547,309.195709 442.928192,306.575287 442.902069,304.129181 
	C442.871948,301.305145 442.070435,299.630432 438.934052,298.841187 
	C418.465912,293.690613 413.705750,271.564545 423.796844,256.753479 
	C425.520874,254.223068 427.709381,252.273026 430.415344,250.817230 
	C432.487457,249.702438 432.448395,248.332413 430.398926,247.165176 
	C417.812958,239.997025 415.212280,221.005707 423.681580,208.860321 
	C427.353210,203.594986 432.755005,201.009445 438.492035,199.339462 
	C442.007355,198.316162 443.015961,196.589371 442.913391,193.352478 
	C442.850830,191.376862 442.739258,189.330261 444.135895,187.227417 
	C449.317200,184.999573 451.016510,189.427094 453.659393,191.791885 
	C456.209747,194.073837 456.427399,197.026627 454.840424,200.002594 
	C452.297607,204.770981 450.501648,209.639450 451.087921,215.226608 
	C452.694550,230.537415 467.425812,238.496643 480.122437,233.671341 
	C490.881622,229.582321 489.370819,227.087692 500.032928,237.916382 
	C501.929718,239.842819 503.616058,241.839523 504.754730,244.710480 
z"/>
<path fill="#DFB244" opacity="1.000000" stroke="none" 
	d="
M1.245279,125.289520 
	C1.000000,122.629440 1.000000,120.258888 1.000000,117.444168 
	C3.033294,112.066338 7.236621,108.933571 10.723688,105.192192 
	C13.793173,101.898842 17.119598,101.485504 21.044601,103.521828 
	C23.822075,104.962791 26.536785,106.598709 29.809887,106.869034 
	C37.916298,107.538567 45.330509,105.614685 50.220848,98.983009 
	C55.804337,91.411377 56.862942,82.992210 52.206863,74.185425 
	C48.338009,66.867645 52.476711,59.572987 61.134468,58.601894 
	C63.477131,60.814144 63.082932,63.425568 63.100182,65.877586 
	C63.120087,68.706070 63.940102,70.371376 67.072327,71.160294 
	C87.534874,76.314217 92.294884,98.437767 82.200912,113.249870 
	C80.476715,115.779976 78.287048,117.728333 75.581589,119.184631 
	C73.506912,120.301399 73.557602,121.670433 75.603798,122.836617 
	C88.181030,130.004745 90.792648,148.984528 82.317619,161.140564 
	C78.646652,166.405960 73.244400,168.990723 67.507652,170.660614 
	C63.992428,171.683868 62.984127,173.410828 63.086613,176.647461 
	C63.149170,178.623032 63.260704,180.669540 61.864243,182.772369 
	C56.682892,185.000671 54.983624,180.572983 52.340721,178.208252 
	C49.790379,175.926346 49.572426,172.973572 51.159462,169.997543 
	C53.702324,165.229156 55.498257,160.360733 54.912022,154.773529 
	C53.305511,139.462509 38.573944,131.503220 25.877642,136.328674 
	C15.117557,140.418243 16.628336,142.911087 5.967081,132.083649 
	C4.070239,130.157242 2.383940,128.160492 1.245279,125.289520 
z"/>
<path fill="#DFB244" opacity="1.000000" stroke="none" 
	d="
M1.245278,381.289490 
	C1.000000,378.629425 1.000000,376.258881 1.000000,373.444153 
	C3.033262,368.066315 7.236565,364.933563 10.723666,361.192230 
	C13.793156,357.898926 17.119509,357.485443 21.044537,359.521790 
	C23.821980,360.962830 26.536709,362.598663 29.809795,362.868988 
	C37.916161,363.538513 45.330379,361.614746 50.220741,354.983124 
	C55.804272,347.411591 56.862995,338.992432 52.206997,330.185638 
	C48.338108,322.867676 52.476738,315.572784 61.134727,314.601868 
	C63.508373,316.804199 63.071823,319.424500 63.098000,321.870544 
	C63.128216,324.694153 63.928802,326.369446 67.065445,327.158661 
	C87.532890,332.308685 92.294167,354.433563 82.204414,369.244598 
	C80.480598,371.775024 78.293083,373.726196 75.586868,375.181396 
	C73.517059,376.294403 73.546478,377.665375 75.598625,378.833252 
	C88.189842,385.998901 90.783737,404.999207 82.321129,417.136230 
	C78.649620,422.401855 73.248970,424.987671 67.512733,426.659393 
	C64.001633,427.682648 62.982292,429.401764 63.086655,432.642334 
	C63.150261,434.617340 63.267174,436.665649 61.852654,438.764130 
	C56.684879,440.979004 54.974937,436.572937 52.333691,434.201721 
	C49.785320,431.913879 49.576424,428.961853 51.162582,425.989319 
	C53.706810,421.221344 55.499317,416.352112 54.911484,410.766327 
	C53.300560,395.458862 38.733414,387.935516 25.821356,392.186707 
	C21.995913,393.446167 18.441620,397.574982 14.240436,395.196960 
	C9.198065,392.342743 5.085600,388.078796 2.117999,382.931854 
	C1.873977,382.508606 1.750205,382.007690 1.245278,381.289490 
z"/>
<path fill="#E0A046" opacity="1.000000" stroke="none" 
	d="
M1.000000,381.468658 
	C5.285389,383.142883 8.120152,386.965973 11.171206,390.376648 
	C14.362492,393.944122 17.161209,394.701874 21.218191,391.951416 
	C24.216711,389.918549 27.606575,388.992401 31.473719,388.884125 
	C44.391640,388.522461 52.600658,394.538116 56.294819,405.913025 
	C57.918583,410.912872 58.118397,416.616302 55.471157,421.885193 
	C51.129906,430.525726 51.217213,430.576385 58.376141,437.337524 
	C58.971352,437.899719 59.679066,438.342773 60.655022,438.932068 
	C61.374092,439.372437 61.613834,439.809326 61.672691,440.715698 
	C61.554058,441.335358 61.459427,441.571930 61.133560,442.109741 
	C60.168690,443.312714 59.512394,444.277679 58.761959,445.162415 
	C52.264824,452.822540 51.055077,453.087555 41.928249,448.936340 
	C33.997932,445.329346 23.270500,446.849609 17.399828,452.957062 
	C11.763082,458.821167 8.577369,468.997681 12.882807,477.826355 
	C13.679362,479.459747 14.609520,481.035675 15.178858,482.789764 
	C15.594045,484.068939 16.003567,485.304474 15.723182,486.670410 
	C14.962012,490.378693 5.698564,498.770569 1.297873,499.227509 
	C1.000000,459.979095 1.000000,420.958221 1.000000,381.468658 
z"/>
<path fill="#E5D94C" opacity="1.000000" stroke="none" 
	d="
M62.682068,440.766937 
	C66.821922,441.018097 70.792007,440.414032 74.436111,441.242981 
	C79.254639,442.339081 77.386246,447.646454 78.616730,450.822174 
	C84.522560,466.064178 104.615517,469.165710 117.140106,459.822693 
	C120.571144,457.263214 121.469406,453.038696 125.001129,450.002502 
	C125.001129,466.689209 125.001129,483.375946 125.000565,500.531342 
	C123.285645,501.000000 121.571281,501.000000 119.428467,501.000000 
	C115.391548,499.503387 112.546883,496.968414 110.061989,494.071564 
	C107.402496,490.971130 104.780701,490.420685 100.946716,492.374695 
	C92.557304,496.650452 84.182091,495.974152 75.673264,491.869690 
	C64.567894,486.512726 60.091393,470.539795 64.377235,459.542633 
	C64.735657,458.622925 65.068901,457.657867 65.604576,456.825470 
	C67.609520,453.709930 67.481552,450.968506 64.478661,448.502197 
	C62.931072,447.231140 62.003025,445.392639 60.553768,443.525269 
	C60.290489,442.653381 60.337826,442.146423 60.768784,441.341156 
	C61.002983,441.029022 60.945736,440.978638 60.940041,440.940918 
	C61.360706,440.577637 61.838326,440.459686 62.682068,440.766937 
z"/>
<path fill="#E5D94C" opacity="1.000000" stroke="none" 
	d="
M318.656952,440.772125 
	C322.821869,441.018036 326.791901,440.413971 330.436035,441.242889 
	C335.254669,442.338898 333.386322,447.646332 334.616730,450.822021 
	C340.522247,466.064056 360.615570,469.165863 373.139984,459.822754 
	C376.570923,457.263245 377.469513,453.038910 381.001007,450.002625 
	C381.001007,466.689301 381.001007,483.376007 381.000488,500.531342 
	C379.285645,501.000000 377.571289,501.000000 375.428467,501.000000 
	C371.371216,499.504791 368.520966,496.947083 366.034790,494.036560 
	C363.338989,490.880615 360.681732,490.473206 356.871155,492.409668 
	C348.617706,496.603851 340.328461,496.033142 331.957031,492.002258 
	C320.870056,486.663788 315.582886,471.933105 320.109985,461.240051 
	C323.336090,453.619995 322.169952,448.901520 316.596130,443.608154 
	C316.275696,442.745209 316.278809,442.227112 316.628418,441.368103 
	C317.267670,440.674103 317.761353,440.518616 318.656952,440.772125 
z"/>
<path fill="#EBF753" opacity="1.000000" stroke="none" 
	d="
M316.487885,440.796936 
	C316.958496,441.510681 316.977753,441.932434 317.007019,442.670746 
	C319.030487,445.681671 319.163422,448.775970 319.103790,451.981842 
	C319.027985,456.055908 317.255188,458.162476 313.149506,459.236786 
	C306.291565,461.031250 300.274841,464.131592 297.205322,471.372101 
	C294.284088,478.262939 294.379730,484.735565 297.648712,491.434357 
	C299.057037,494.320374 301.966644,496.630951 301.230804,500.673218 
	C286.645782,501.000000 272.291534,501.000000 257.468658,501.000000 
	C259.324432,496.485229 263.359344,493.449341 267.007782,490.243713 
	C270.470825,487.200958 270.379730,484.566010 268.179230,481.127075 
	C266.137115,477.935638 265.124756,474.546417 264.825287,470.583466 
	C264.347382,464.259735 266.520294,458.907257 269.499573,453.868011 
	C272.493011,448.804810 278.108124,446.439240 283.353180,445.340546 
	C288.617493,444.237823 294.682953,443.693359 299.625397,447.239990 
	C304.470703,450.716888 308.307068,450.554504 311.648773,445.337402 
	C312.518433,443.979675 313.817596,442.897034 315.004852,441.359497 
	C315.330200,440.719940 315.649384,440.551331 316.487885,440.796936 
z"/>
<path fill="#EBF753" opacity="1.000000" stroke="none" 
	d="
M60.669117,441.080414 
	C61.005096,441.464081 61.007210,441.899170 61.013187,442.660767 
	C63.030437,445.681671 63.163414,448.775970 63.103786,451.981842 
	C63.028015,456.055969 61.255184,458.162506 57.149517,459.236786 
	C50.291565,461.031250 44.274845,464.131653 41.205349,471.372101 
	C38.284061,478.262878 38.379711,484.735504 41.648712,491.434326 
	C43.057064,494.320343 45.966621,496.630951 45.230812,500.673218 
	C31.318680,501.000000 17.637171,501.028625 3.956462,500.937134 
	C3.020033,500.930878 1.370293,502.151459 1.000000,499.500000 
	C6.069741,496.045685 9.365008,491.186371 13.585069,487.321655 
	C15.163057,485.876526 13.627703,485.079407 13.279701,483.953857 
	C11.903954,479.503998 8.925474,475.833923 8.771168,470.659088 
	C8.583191,464.355133 10.515694,458.994934 13.458940,453.937714 
	C16.423027,448.844666 22.040480,446.471375 27.275475,445.342255 
	C32.896370,444.129913 39.298813,443.819305 44.433956,447.645233 
	C48.737919,450.851959 51.825073,450.228088 54.966846,446.171234 
	C56.450859,444.254883 58.527256,442.797272 60.669117,441.080414 
z"/>
<path fill="#DDA344" opacity="1.000000" stroke="none" 
	d="
M445.252319,443.276245 
	C445.015320,442.562622 445.017395,442.133118 445.036774,441.382874 
	C445.482758,441.049683 445.911407,441.037231 446.661743,441.009460 
	C449.671692,438.964844 452.767822,438.838257 455.973511,438.896118 
	C460.045502,438.969635 462.160431,440.734406 463.235840,444.843292 
	C465.030731,451.701294 468.126434,457.721771 475.368042,460.792694 
	C482.259308,463.714996 488.733032,463.621216 495.432983,460.351807 
	C498.319427,458.943268 500.630615,456.034027 504.673157,456.769165 
	C505.000000,470.666656 505.029175,484.333527 504.937042,497.999573 
	C504.930603,498.951233 506.145111,500.603943 503.500000,501.000000 
	C499.375336,499.502350 496.522125,496.951660 494.036499,494.041718 
	C491.345306,490.891083 488.696106,490.478729 484.878754,492.406372 
	C476.443359,496.666077 468.055267,495.980865 459.530365,491.783630 
	C448.739502,486.470734 443.862823,470.986389 448.277863,460.259338 
	C450.539642,454.764069 451.887177,450.485870 446.736694,446.255737 
	C446.011597,445.660217 446.028839,444.412445 445.252319,443.276245 
z"/>
<path fill="#DDA344" opacity="1.000000" stroke="none" 
	d="
M505.000000,244.531342 
	C500.710510,242.862793 497.879456,239.035858 494.827545,235.626633 
	C491.635437,232.060745 488.838562,231.297760 484.780304,234.052963 
	C481.782990,236.087875 478.391174,237.010681 474.524353,237.119080 
	C461.613800,237.480988 453.397247,231.466522 449.702911,220.089294 
	C448.079071,215.088425 447.878632,209.385498 450.524384,204.117126 
	C454.866943,195.469925 454.780914,195.419846 447.621155,188.664276 
	C447.025848,188.102570 446.316559,187.661697 445.339478,187.074768 
	C444.693512,186.595642 444.549652,186.148117 444.821472,185.359299 
	C445.484222,185.061295 445.912750,185.046249 446.662292,185.012695 
	C449.671631,182.964798 452.767761,182.838333 455.973450,182.896149 
	C460.045471,182.969604 462.160431,184.734375 463.235840,188.843277 
	C465.030762,195.701248 468.126373,201.721756 475.368073,204.792633 
	C482.259308,207.714920 488.733002,207.621231 495.432953,204.351807 
	C498.319427,202.943253 500.630585,200.033997 504.673157,200.769165 
	C505.000000,215.354233 505.000000,229.708450 505.000000,244.531342 
z"/>
<path fill="#DDA344" opacity="1.000000" stroke="none" 
	d="
M61.187347,314.680847 
	C57.522079,316.540649 55.569996,319.796875 52.853733,322.190887 
	C50.400509,324.353058 52.585400,326.453918 53.493988,327.919189 
	C56.427528,332.650146 57.233467,337.613129 57.067699,343.070496 
	C56.775208,352.699890 48.206005,363.520355 38.613346,364.788147 
	C32.786720,365.558197 26.587341,366.040039 21.327188,362.195618 
	C17.460220,359.369446 14.477469,359.689453 11.302945,363.523926 
	C8.470143,366.945648 4.893506,369.751526 1.322554,372.914581 
	C1.000000,358.645782 1.000000,344.291534 1.000000,329.468658 
	C3.377018,327.439056 5.040740,329.167450 6.816811,330.284302 
	C15.503080,335.746338 24.173416,336.748596 33.444092,331.277863 
	C38.544563,328.268066 40.478874,323.429749 42.375660,318.581451 
	C45.415058,310.812622 48.927082,308.992493 57.030514,311.896729 
	C57.500858,312.065308 57.957157,312.255219 58.704113,312.746948 
	C59.444851,313.014526 59.873112,313.034912 60.622765,313.065765 
	C61.323551,313.430389 61.462723,313.867554 61.187347,314.680847 
z"/>
<path fill="#DDA344" opacity="1.000000" stroke="none" 
	d="
M444.812622,311.319153 
	C448.477905,309.459351 450.429993,306.203094 453.146271,303.809113 
	C455.599518,301.646912 453.414581,299.546051 452.506042,298.080811 
	C449.572479,293.349884 448.766510,288.386932 448.932220,282.929565 
	C449.224640,273.300415 457.794098,262.479645 467.386688,261.211823 
	C473.213348,260.441742 479.412750,259.959991 484.672852,263.804413 
	C488.539917,266.630676 491.522552,266.310455 494.697021,262.476105 
	C497.529846,259.054413 501.106476,256.248505 504.677429,253.085434 
	C505.000000,267.354218 505.000000,281.708466 505.000000,296.531342 
	C502.622955,298.560974 500.959259,296.832458 499.183197,295.715698 
	C490.496887,290.253754 481.826569,289.251404 472.555908,294.722137 
	C467.455444,297.731934 465.521149,302.570251 463.624359,307.418549 
	C460.585022,315.187378 457.072906,317.007507 448.969452,314.103271 
	C448.499115,313.934753 448.042847,313.744751 447.295898,313.253052 
	C446.555145,312.985474 446.126862,312.965088 445.377197,312.934235 
	C444.682739,312.567413 444.533020,312.133911 444.812622,311.319153 
z"/>
<path fill="#DDA344" opacity="1.000000" stroke="none" 
	d="
M1.000000,125.468658 
	C5.289485,127.137222 8.120480,130.964172 11.172452,134.373367 
	C14.364603,137.939117 17.161451,138.702438 21.219744,135.947052 
	C24.217005,133.912064 27.608860,132.989319 31.475639,132.880920 
	C44.385860,132.518997 52.602577,138.533096 56.297096,149.910660 
	C57.920982,154.911530 58.121269,160.614456 55.475620,165.882812 
	C51.133076,174.530273 51.219093,174.580353 58.378815,181.335739 
	C58.974136,181.897415 59.683426,182.338303 60.660484,182.925217 
	C61.301571,183.405930 61.454594,183.850525 61.178482,184.640701 
	C60.515697,184.938705 60.087196,184.953751 59.337658,184.987305 
	C56.328373,187.035233 53.232201,187.161667 50.026535,187.103851 
	C45.954498,187.030396 43.839584,185.265610 42.764187,181.156708 
	C40.969284,174.298721 37.873600,168.278229 30.631929,165.207352 
	C23.740673,162.285065 17.266983,162.378784 10.567041,165.648209 
	C7.680561,167.056763 5.369399,169.965988 1.326836,169.230820 
	C1.000000,154.645767 1.000000,140.291550 1.000000,125.468658 
z"/>
<path fill="#DDA344" opacity="1.000000" stroke="none" 
	d="
M61.187218,58.680847 
	C57.522179,60.540733 55.569969,63.796833 52.853737,66.190887 
	C50.400600,68.353050 52.585396,70.453941 53.493980,71.919228 
	C56.427521,76.650154 57.233467,81.613136 57.067703,87.070488 
	C56.775219,96.699913 48.205902,107.520462 38.613266,108.788116 
	C32.786640,109.558090 26.587248,110.039948 21.327116,106.195557 
	C17.460081,103.369316 14.477446,103.689522 11.302957,107.523941 
	C8.470167,110.945648 4.893505,113.751511 1.322550,116.914566 
	C1.000000,102.645775 1.000000,88.291542 1.000000,73.468658 
	C3.376895,71.439056 5.040588,73.167351 6.816592,74.284119 
	C15.502353,79.745781 24.172302,80.749199 33.442829,75.278664 
	C38.542862,72.269127 40.478325,67.431664 42.375294,62.583511 
	C45.415844,54.812675 48.927261,52.992046 57.027878,55.896236 
	C57.498215,56.064854 57.954334,56.255116 58.700676,56.747654 
	C59.441368,57.016079 59.870014,57.036770 60.620361,57.067749 
	C61.323448,57.430714 61.462421,57.867599 61.187218,58.680847 
z"/>
<path fill="#DDA344" opacity="1.000000" stroke="none" 
	d="
M445.375366,56.948128 
	C445.039154,56.509552 445.024353,56.080849 445.011353,55.329910 
	C446.031677,54.049709 445.880554,52.323879 446.872345,51.539581 
	C452.307129,47.241787 449.949249,42.891300 448.183197,37.552338 
	C442.863129,21.469158 452.551636,3.487706 471.528015,2.976958 
	C476.420837,2.845269 481.195587,3.072037 485.469727,5.751095 
	C488.513367,7.658866 491.085938,7.284347 493.380280,4.566087 
	C494.719543,2.979379 496.620575,2.299281 498.718140,1.243189 
	C503.976410,-0.073188 505.398560,1.673759 505.156128,6.891915 
	C504.643463,17.927439 505.000000,29.003342 505.000000,40.531342 
	C502.622986,42.560974 500.959229,40.832558 499.183167,39.715740 
	C490.496918,34.253616 481.826569,33.251484 472.555908,38.722130 
	C467.455444,41.731953 465.521118,46.570244 463.624298,51.418533 
	C460.584930,59.187302 457.072876,61.007473 448.969452,58.103283 
	C448.499084,57.934719 448.042816,57.744774 447.295868,57.253059 
	C446.554535,56.989887 446.125671,56.973942 445.375366,56.948128 
z"/>
<path fill="#E49C48" opacity="1.000000" stroke="none" 
	d="
M58.934433,312.668152 
	C55.207523,313.022858 51.306309,312.540100 47.611984,313.205688 
	C42.646423,314.100372 44.655472,319.322662 43.632385,322.264191 
	C37.897968,338.751251 15.311028,341.630402 3.262304,330.314514 
	C2.789161,329.870178 2.195497,329.554108 1.328996,329.089111 
	C1.000000,304.645782 1.000000,280.291534 1.000000,255.468658 
	C5.915287,257.923950 9.149129,262.652679 13.282737,266.414124 
	C14.597024,267.610107 13.870328,268.451813 13.432800,269.788513 
	C12.024551,274.090851 8.934379,277.569092 8.759849,282.595428 
	C8.536639,289.023682 10.170929,294.663940 13.313939,299.922363 
	C16.466526,305.196747 22.138582,307.599792 27.603741,308.739136 
	C32.924713,309.848450 39.076694,310.316376 43.897198,306.672913 
	C48.861031,302.921112 52.319435,304.038727 55.577766,308.666016 
	C56.516411,309.999023 57.752529,311.122559 58.934433,312.668152 
z"/>
<path fill="#DFB244" opacity="1.000000" stroke="none" 
	d="
M445.007812,443.458282 
	C448.485626,444.534882 450.433594,447.800354 453.150238,450.197205 
	C455.602325,452.360657 453.306885,454.330658 452.511475,455.950867 
	C450.604065,459.836121 448.936066,463.508331 448.881714,468.095459 
	C448.732208,480.710571 454.772156,488.822083 466.042114,492.347900 
	C472.112396,494.246979 478.978577,494.182434 484.706055,490.131439 
	C488.728058,487.286713 491.700256,487.766907 494.716797,491.604492 
	C497.166656,494.721130 500.106567,497.452606 502.914551,500.677460 
	C478.645782,501.000000 454.291534,501.000000 429.468658,501.000000 
	C427.999573,498.156921 425.679626,496.173187 424.196564,493.583557 
	C418.561249,483.743744 420.155060,474.446442 425.773712,465.578857 
	C429.013245,460.466156 434.747375,458.136444 440.437714,457.214478 
	C444.205444,456.603973 445.256744,455.324097 445.029755,451.901947 
	C444.854095,449.253815 444.999634,446.584412 445.007812,443.458282 
z"/>
<path fill="#E8E84E" opacity="1.000000" stroke="none" 
	d="
M301.468658,501.000000 
	C300.004761,498.154144 297.683044,496.170593 296.200226,493.581726 
	C290.564209,483.741760 292.163391,474.445679 297.780273,465.577179 
	C301.020874,460.460510 306.763977,458.149902 312.448151,457.219666 
	C316.219574,456.602448 317.257812,455.311951 317.033813,451.897736 
	C316.860046,449.249573 317.003632,446.580566 317.011597,443.454041 
	C320.481415,444.541077 322.436157,447.798889 325.151489,450.198242 
	C327.601776,452.363342 325.357239,454.392639 324.504364,455.942078 
	C322.216064,460.098999 321.035858,464.240784 320.816345,469.088623 
	C320.538422,475.227020 323.065887,480.164215 326.108398,484.766907 
	C329.331818,489.643280 334.892975,491.990936 340.441071,492.811340 
	C346.285553,493.675568 352.346771,493.593018 357.595093,489.656128 
	C360.605225,487.398102 363.400879,487.509308 366.020416,490.893433 
	C368.647156,494.286835 371.868530,497.219971 374.914612,500.677429 
	C350.645782,501.000000 326.291534,501.000000 301.468658,501.000000 
z"/>
<path fill="#DFB244" opacity="1.000000" stroke="none" 
	d="
M173.468658,501.000000 
	C171.999023,498.156891 169.679367,496.172546 168.196045,493.582764 
	C162.559387,483.741516 164.155930,474.442810 169.776154,465.575745 
	C173.016159,460.463959 178.753403,458.135681 184.443466,457.214691 
	C188.218613,456.603699 189.254257,455.310944 189.029861,451.895386 
	C188.855865,449.246826 189.001556,446.577271 189.013336,443.449768 
	C192.482788,444.540588 194.481796,447.750793 197.143753,450.208008 
	C199.688492,452.557007 197.193680,454.685730 196.268753,456.373901 
	C194.058487,460.408081 193.081818,464.444000 192.830856,469.084167 
	C192.498657,475.226562 195.069244,480.161774 198.112320,484.764008 
	C201.336105,489.639557 206.896896,491.986023 212.445831,492.807556 
	C218.292084,493.673187 224.351944,493.581543 229.598755,489.646576 
	C232.615036,487.384369 235.407379,487.514862 238.024139,490.891144 
	C240.653183,494.283295 243.872025,497.218323 246.916199,500.676819 
	C222.645767,501.000000 198.291550,501.000000 173.468658,501.000000 
z"/>
<path fill="#E8E84E" opacity="1.000000" stroke="none" 
	d="
M45.468658,501.000000 
	C44.004791,498.154114 41.682945,496.170685 40.200165,493.581726 
	C34.564415,483.741821 36.163284,474.445740 41.780228,465.577179 
	C45.020931,460.460480 50.764141,458.150085 56.448177,457.219727 
	C60.219658,456.602386 61.257687,455.311737 61.033813,451.897705 
	C60.860161,449.249542 61.003643,446.580536 61.011604,443.454041 
	C64.481354,444.541107 66.436195,447.798828 69.151497,450.198151 
	C71.601685,452.363281 69.357300,454.392639 68.504326,455.942047 
	C66.215874,460.098969 65.035942,464.240814 64.816391,469.088562 
	C64.538383,475.226959 67.065796,480.164185 70.108383,484.766846 
	C73.331818,489.643188 78.892944,491.990875 84.440994,492.811310 
	C90.285461,493.675598 96.346680,493.593170 101.595001,489.656250 
	C104.605087,487.398285 107.400848,487.509125 110.020447,490.893372 
	C112.647141,494.286835 115.868507,497.219971 118.914619,500.677429 
	C94.645775,501.000000 70.291542,501.000000 45.468658,501.000000 
z"/>
<path fill="#E49C48" opacity="1.000000" stroke="none" 
	d="
M447.065552,57.331848 
	C450.792480,56.977135 454.693695,57.459900 458.388000,56.794292 
	C463.353546,55.899651 461.344574,50.677326 462.367645,47.735809 
	C468.101868,31.248623 490.689301,28.369759 502.737762,39.685493 
	C503.210907,40.129856 503.804535,40.445934 504.671021,40.910892 
	C505.000000,65.354225 505.000000,89.708458 505.000000,114.531342 
	C500.084900,112.075859 496.850769,107.347427 492.717285,103.585869 
	C491.403015,102.389862 492.129700,101.548126 492.567200,100.211456 
	C493.975433,95.909119 497.065765,92.430878 497.240082,87.404510 
	C497.463074,80.976349 495.829254,75.335945 492.686096,70.077545 
	C489.533417,64.803268 483.861389,62.400158 478.396271,61.260853 
	C473.075317,60.151608 466.923370,59.683617 462.102844,63.327080 
	C457.139038,67.078880 453.680573,65.961296 450.422272,61.333942 
	C449.483612,60.000931 448.247437,58.877422 447.065552,57.331848 
z"/>
<path fill="#E49C48" opacity="1.000000" stroke="none" 
	d="
M505.000000,200.531342 
	C502.156189,201.999268 500.170135,204.317474 497.581085,205.800339 
	C487.741882,211.435822 478.447876,209.831253 469.575684,204.219101 
	C464.450439,200.977142 462.164520,195.224716 461.221130,189.548599 
	C460.594635,185.779160 459.303497,184.743698 455.893402,184.966583 
	C453.245422,185.139633 450.576874,184.998932 447.450439,184.995941 
	C448.693939,181.458908 452.057617,179.419632 454.546844,176.592255 
	C455.878662,175.079529 456.740753,176.304932 457.940979,176.688553 
	C462.397705,178.113007 466.076416,181.119843 471.278748,181.274445 
	C477.604034,181.462433 483.027557,179.618073 488.067963,176.577896 
	C493.265442,173.442993 495.744202,167.738495 496.764801,162.221268 
	C497.849243,156.359009 497.915192,150.048355 493.814697,144.661728 
	C491.473572,141.586273 491.476776,138.697815 494.965088,135.971497 
	C498.332306,133.339798 501.237244,130.116653 504.672607,127.076675 
	C505.000000,151.354233 505.000000,175.708450 505.000000,200.531342 
z"/>
<path fill="#E49C48" opacity="1.000000" stroke="none" 
	d="
M1.000000,169.468658 
	C3.843847,168.000778 5.829837,165.682526 8.418883,164.199646 
	C18.258089,158.564209 27.552023,160.168793 36.424358,165.780838 
	C41.549816,169.022842 43.835304,174.775391 44.778839,180.451401 
	C45.405437,184.220810 46.696514,185.256287 50.106594,185.033432 
	C52.754601,184.860367 55.423107,185.001083 58.549561,185.004074 
	C57.305973,188.541016 53.942535,190.580505 51.453121,193.407745 
	C50.121273,194.920319 49.259266,193.695114 48.059010,193.311462 
	C43.602280,191.886948 39.923531,188.880157 34.721207,188.725571 
	C28.395903,188.537598 22.972391,190.381912 17.932001,193.422150 
	C12.734591,196.557068 10.255758,202.261520 9.235220,207.778763 
	C8.150856,213.641037 8.084775,219.951675 12.185287,225.338348 
	C14.526295,228.413651 14.523383,231.302200 11.034935,234.028534 
	C7.667675,236.660141 4.762742,239.883331 1.327356,242.923309 
	C1.000000,218.645767 1.000000,194.291550 1.000000,169.468658 
z"/>
<path fill="#E49C48" opacity="1.000000" stroke="none" 
	d="
M505.000000,456.531342 
	C502.156158,457.999237 500.170197,460.317505 497.581146,461.800385 
	C487.741943,467.435852 478.447906,465.831177 469.575653,460.219177 
	C464.450409,456.977234 462.164734,451.224670 461.221161,445.548645 
	C460.594543,441.779358 459.303619,440.743652 455.893433,440.966553 
	C453.245453,441.139648 450.576935,440.998901 447.450470,440.995911 
	C448.694061,437.458954 452.057556,435.419525 454.546906,432.592224 
	C455.878784,431.079529 456.740753,432.305023 457.940979,432.688629 
	C462.397736,434.113068 466.076538,437.119751 471.278778,437.274475 
	C477.604126,437.462555 483.027649,435.618103 488.067993,432.577881 
	C493.265259,429.442993 495.744232,423.738617 496.764832,418.221344 
	C497.849243,412.359039 497.915070,406.048462 493.814758,400.661713 
	C491.474030,397.586548 491.476105,394.697968 494.965027,391.971527 
	C498.332397,389.340057 501.237213,386.116669 504.672607,383.076660 
	C505.000000,407.354218 505.000000,431.708466 505.000000,456.531342 
z"/>
<path fill="#E49C48" opacity="1.000000" stroke="none" 
	d="
M447.065552,313.331848 
	C450.792480,312.977142 454.693695,313.459961 458.388031,312.794373 
	C463.353577,311.899689 461.344604,306.677399 462.367706,303.735870 
	C468.102234,287.248291 490.689697,284.369843 502.737701,295.685455 
	C503.210846,296.129852 503.804474,296.445953 504.670990,296.910889 
	C505.000000,321.354218 505.000000,345.708466 505.000000,370.531342 
	C500.084778,368.075958 496.850861,363.347260 492.717224,359.585815 
	C491.402832,358.389832 492.129761,357.548065 492.567230,356.211456 
	C493.975372,351.909058 497.065643,348.430817 497.240143,343.404510 
	C497.463318,336.976288 495.829163,331.335938 492.686096,326.077576 
	C489.533508,320.803284 483.861450,318.400208 478.396271,317.260864 
	C473.075256,316.151611 466.923309,315.683716 462.102814,319.327148 
	C457.138947,323.078918 453.680573,321.961212 450.422272,317.333954 
	C449.483643,316.000916 448.247467,314.877441 447.065552,313.331848 
z"/>
<path fill="#E49C48" opacity="1.000000" stroke="none" 
	d="
M58.930935,56.669441 
	C55.203865,57.023815 51.302238,56.539005 47.608906,57.206589 
	C42.648121,58.103271 44.654991,63.324120 43.631191,66.266663 
	C37.896099,82.750252 15.311757,85.630775 3.262222,74.314415 
	C2.789095,73.870071 2.195474,73.554039 1.328998,73.089111 
	C1.000000,49.986752 1.048689,26.973251 0.930973,3.960604 
	C0.918011,1.426611 1.566345,0.533844 4.500000,1.000000 
	C6.026486,4.179854 8.770197,6.003715 11.072880,7.975090 
	C14.099998,10.566669 14.601049,13.110058 12.502595,16.290588 
	C6.128041,25.952198 8.126396,35.459328 13.661572,44.424015 
	C16.795969,49.500443 22.559507,51.921936 28.156565,52.819984 
	C34.070068,53.768806 40.265102,53.740330 45.645420,49.644783 
	C48.427086,47.527351 51.465134,47.339172 53.878162,50.879856 
	C55.251221,52.894573 57.173943,54.534691 58.930935,56.669441 
z"/>
<path fill="#DFB244" opacity="1.000000" stroke="none" 
	d="
M498.531342,1.000000 
	C497.399261,4.637640 494.108032,6.785821 491.409271,9.420801 
	C489.264771,11.514605 487.328217,9.083795 485.642853,8.291966 
	C482.042938,6.600645 478.693726,4.993598 474.463074,4.883606 
	C461.529510,4.547348 453.362122,10.596197 449.691925,21.942158 
	C448.077271,26.933674 447.880249,32.636326 450.530212,37.902565 
	C454.874573,46.536015 454.782776,46.589226 447.617523,53.338573 
	C447.022552,53.899021 446.311401,54.336178 445.333679,54.919151 
	C444.980255,51.196793 445.551147,47.256050 444.766266,43.606922 
	C443.713257,38.711376 438.358521,40.496967 435.257599,39.451286 
	C422.126923,35.023415 417.067932,16.013441 423.718292,5.440903 
	C424.449310,4.278715 425.028229,3.155396 424.992340,1.384710 
	C449.354218,1.000000 473.708466,1.000000 498.531342,1.000000 
z"/>
<path fill="#DFB244" opacity="1.000000" stroke="none" 
	d="
M189.341400,54.927071 
	C188.986115,51.205875 189.548965,47.266705 188.768875,43.614372 
	C187.720352,38.705235 182.361496,40.497414 179.263596,39.454086 
	C166.126221,35.029591 161.068710,16.011190 167.718002,5.441376 
	C168.449188,4.279068 169.028244,3.155609 168.992355,1.384710 
	C193.354233,1.000000 217.708450,1.000000 242.531342,1.000000 
	C241.406998,4.643257 238.109283,6.784999 235.414413,9.423753 
	C233.266815,11.526636 231.331909,9.089479 229.648026,8.300447 
	C226.047226,6.613189 222.699997,4.999212 218.469345,4.888708 
	C205.528503,4.550696 197.367325,10.599072 193.696274,21.943748 
	C192.081360,26.934303 191.884796,32.637596 194.536621,37.904579 
	C198.880386,46.532089 198.787170,46.585930 191.622116,53.340595 
	C191.027145,53.901489 190.317673,54.340965 189.341400,54.927071 
z"/>
<path fill="#E2C248" opacity="1.000000" stroke="none" 
	d="
M445.012939,310.548096 
	C445.020294,311.439819 445.021820,311.864563 445.039612,312.606567 
	C444.598694,312.952423 444.141571,312.981079 443.341248,313.010437 
	C442.062531,311.960876 440.329620,312.122711 439.547180,311.131500 
	C435.261932,305.702759 430.921936,308.023682 425.571198,309.793396 
	C409.476105,315.116852 391.648010,305.587372 390.898376,286.532227 
	C390.697815,281.434235 391.277588,276.569275 393.969177,272.152374 
	C395.767883,269.200684 394.983215,266.949921 392.645416,264.673157 
	C388.365662,260.505188 384.057190,256.350006 380.112183,251.330872 
	C379.493622,249.972198 379.450623,248.922012 379.765076,247.473969 
	C383.425690,242.016891 387.996613,237.866638 392.408112,233.601822 
	C395.113373,230.986465 395.455780,228.622147 393.741119,225.239059 
	C389.384399,216.643097 389.946716,208.148499 394.251740,199.463852 
	C399.484772,188.907104 414.453156,184.009247 425.307617,188.108261 
	C430.841949,190.198196 435.336975,192.241898 439.752014,186.733078 
	C440.334930,186.005768 441.592407,186.026749 442.718658,185.235352 
	C443.455444,184.997284 443.912872,185.005661 444.713013,185.045181 
	C445.041656,185.500229 445.027618,185.924149 445.016144,186.666473 
	C444.984222,190.807068 445.574158,194.768356 444.761353,198.417175 
	C443.680664,203.268631 438.366180,201.385040 435.201538,202.603989 
	C419.994781,208.461273 416.794495,228.532761 426.148163,241.084747 
	C428.343842,244.031219 431.609131,245.309021 434.679138,246.881760 
	C437.723389,248.441284 437.719666,250.037811 434.590912,251.066574 
	C423.683014,254.653198 419.705750,267.655670 421.043945,278.137146 
	C422.052887,286.039734 431.817566,296.185699 439.931305,296.806519 
	C444.276306,297.139008 445.357147,298.765869 445.038635,302.604065 
	C444.833160,305.080261 445.004547,307.587708 445.012939,310.548096 
z"/>
<path fill="#E2C248" opacity="1.000000" stroke="none" 
	d="
M316.672943,57.379265 
	C317.399445,57.053459 317.856598,57.027771 318.657227,56.998138 
	C320.208435,61.122147 323.947876,63.115120 326.654663,65.961662 
	C328.070404,67.450462 329.357239,65.820625 330.687714,65.335449 
	C334.833649,63.823627 338.317444,60.983822 343.194336,60.878025 
	C356.127960,60.597443 364.670441,67.046043 368.358337,78.546478 
	C370.232941,84.392303 369.918579,90.828003 366.093536,96.265129 
	C362.951050,100.732002 363.537811,104.119354 367.870483,107.482574 
	C372.309998,110.928757 375.380493,115.938492 380.668945,118.938492 
	C381.012512,120.066559 381.017059,121.133995 381.016418,122.601685 
	C378.639679,128.526413 373.948822,132.124817 369.822449,136.124985 
	C366.997040,138.863983 366.498199,141.267014 368.307770,144.859985 
	C373.319763,154.811401 371.959961,164.468887 365.897919,173.541901 
	C360.781586,181.199478 346.025360,186.434921 337.285492,181.988678 
	C329.583679,178.070526 324.713440,180.023529 319.321472,185.592422 
	C318.416351,185.838654 317.883484,185.814606 316.990051,185.482330 
	C316.224884,184.903397 315.932739,184.448090 315.672546,183.526535 
	C315.472015,180.313141 314.750519,177.560425 314.883820,174.702408 
	C315.137451,169.264908 315.892487,168.234177 321.218750,166.817825 
	C333.106934,163.656586 339.528931,155.392014 338.753784,143.157593 
	C338.309540,136.146011 335.398346,130.116470 328.784698,126.432854 
	C321.999390,122.653610 322.035706,119.425499 328.750916,115.545692 
	C336.357788,111.150726 339.206207,104.179672 338.786987,95.875443 
	C338.400299,88.216263 335.498718,81.719994 328.076660,78.098579 
	C325.840851,77.007675 323.662262,75.809685 321.234375,75.174774 
	C315.877899,73.774025 315.127106,72.769135 314.889099,67.313766 
	C314.779144,64.792488 315.260681,62.354347 315.614807,59.490749 
	C315.824554,58.575764 316.067627,58.103683 316.672943,57.379265 
z"/>
<path fill="#E3C947" opacity="1.000000" stroke="none" 
	d="
M319.217346,185.346741 
	C320.581116,181.362488 323.891754,179.239212 326.571045,176.591568 
	C328.716431,174.471558 330.646729,176.914001 332.333954,177.695541 
	C335.933014,179.362595 339.271881,180.997101 343.495636,181.116211 
	C356.250671,181.475876 364.634003,175.569733 368.279999,164.132294 
	C370.270721,157.887436 370.085388,150.997192 366.017609,145.064651 
	C363.486176,141.372726 363.641815,138.506348 367.383423,135.447922 
	C371.982300,131.688766 376.060577,127.292671 380.687561,123.086914 
	C381.011261,140.670624 381.011261,158.339310 381.011261,176.007996 
	C381.490479,176.182281 381.969666,176.356567 382.448883,176.530853 
	C384.592743,169.115524 389.708069,165.133621 396.404633,162.222549 
	C405.033508,158.471466 422.319855,162.752930 425.608459,172.218170 
	C426.780182,175.590637 429.340881,178.427124 429.132721,182.359711 
	C429.015717,184.570084 430.762756,184.964203 432.585541,184.963348 
	C435.746216,184.961868 438.906860,184.974518 442.532776,184.985062 
	C441.418671,188.636337 438.108734,190.760162 435.429565,193.408112 
	C433.283752,195.528885 431.353699,193.086014 429.666534,192.304718 
	C426.067383,190.638062 422.728607,189.002960 418.504822,188.883804 
	C405.749451,188.524002 397.366119,194.430054 393.720032,205.867615 
	C391.729248,212.112534 391.914642,219.002808 395.982483,224.935425 
	C398.514008,228.627472 398.358063,231.494049 394.616394,234.552231 
	C390.017334,238.311157 385.938568,242.706680 381.311768,246.911835 
	C378.388397,245.331192 378.912262,242.636887 378.896912,240.222488 
	C378.814240,227.246368 378.844360,214.269684 378.871704,200.879181 
	C372.615112,208.176025 364.993439,211.567780 355.514526,211.196869 
	C344.183380,210.753494 335.426086,204.660690 331.711182,192.744354 
	C330.326691,188.303329 328.377289,186.695572 324.074982,187.064575 
	C322.415131,187.206924 320.734100,186.961380 319.217346,185.346741 
z"/>
<path fill="#E2C248" opacity="1.000000" stroke="none" 
	d="
M125.235184,251.280792 
	C124.985291,249.934280 124.981789,248.866531 124.983551,247.398407 
	C127.360306,241.473465 132.051270,237.875137 136.177612,233.874939 
	C139.003082,231.135849 139.501709,228.732742 137.692184,225.139862 
	C132.680161,215.188339 134.040207,205.530853 140.102234,196.457870 
	C145.218582,188.800323 159.975220,183.564972 168.714844,188.011459 
	C176.416946,191.930130 181.286850,189.975739 186.678894,184.407501 
	C187.584091,184.161377 188.117035,184.185547 189.010498,184.518112 
	C189.775604,185.097458 190.067719,185.552948 190.327667,186.474930 
	C190.578934,189.851837 191.188751,192.779739 191.125885,195.803360 
	C191.035568,200.148148 189.116714,202.228958 184.796402,203.300919 
	C177.248840,205.173584 171.665833,209.363541 168.395447,217.088928 
	C164.725479,225.758240 169.766434,240.264877 177.209427,243.704559 
	C184.187836,246.929565 183.922470,250.572601 177.197937,254.487274 
	C169.615097,258.901581 166.765427,265.873291 167.205490,274.201752 
	C167.611908,281.893555 170.659317,288.290222 178.001648,291.948151 
	C180.083694,292.985443 182.136703,294.088135 184.374832,294.727600 
	C190.358780,296.437347 190.970398,297.249542 191.126770,303.290344 
	C191.187759,305.646423 190.620316,307.910339 190.447083,310.631104 
	C190.353119,311.578094 190.201294,312.096558 189.701935,312.910217 
	C188.991684,313.551178 188.492645,313.745148 187.548141,313.783936 
	C185.148148,312.871460 183.352585,311.522858 182.004166,309.930878 
	C179.040512,306.431885 176.167801,306.809387 172.367859,308.667053 
	C162.602341,313.441101 149.551392,311.266815 142.214401,304.096252 
	C134.793716,296.843872 132.449341,283.519012 137.383072,273.583679 
	C139.437073,269.447418 139.031754,266.752991 135.690491,263.582520 
	C131.892349,259.978485 127.364212,256.844238 125.235184,251.280792 
z"/>
<path fill="#E2C248" opacity="1.000000" stroke="none" 
	d="
M60.987083,315.451904 
	C60.979694,314.560181 60.978180,314.135437 60.960411,313.393433 
	C61.401291,313.047577 61.858414,313.018921 62.658737,312.989563 
	C63.939472,314.039856 65.675903,313.877869 66.458221,314.872040 
	C70.755859,320.333740 75.113693,317.939484 80.459038,316.193115 
	C96.547295,310.936859 114.081596,320.323395 115.087280,339.079712 
	C115.369698,344.346893 114.775749,349.387421 111.981041,353.973389 
	C110.317780,356.702698 110.906364,358.911713 113.101791,361.083008 
	C117.474869,365.408051 122.014725,369.585175 125.916618,374.880707 
	C126.394501,376.373505 126.266632,377.439484 125.323761,378.718536 
	C117.962311,382.798370 113.583847,389.489105 107.938240,394.802948 
	C106.664459,396.001892 108.071693,397.201263 108.516045,398.401062 
	C110.104874,402.691162 113.048538,406.307098 113.124916,411.371338 
	C113.323326,424.525085 106.617210,432.829163 95.286575,436.396942 
	C90.377678,437.942688 84.910667,437.818390 79.773972,435.190643 
	C70.587837,430.491272 69.041901,431.119385 63.059891,440.648285 
	C62.538593,440.976288 62.080276,440.968140 61.278152,440.931610 
	C60.949848,440.485596 60.965363,440.068024 60.978207,439.336700 
	C61.011639,435.200623 60.428440,431.241211 61.236305,427.589600 
	C62.312443,422.725403 67.630302,424.615112 70.792130,423.398956 
	C86.001060,417.549103 89.206520,397.472137 79.854927,384.918793 
	C77.659615,381.971863 74.395393,380.691650 71.324593,379.120178 
	C68.285088,377.564697 68.269653,375.963470 71.405746,374.935883 
	C82.305618,371.364380 86.295219,358.343506 84.956749,347.865082 
	C83.947487,339.963867 74.183464,329.815063 66.069550,329.193512 
	C61.725208,328.860779 60.642555,327.235504 60.961395,323.396332 
	C61.167049,320.920044 60.995472,318.412415 60.987083,315.451904 
z"/>
<path fill="#E2C248" opacity="1.000000" stroke="none" 
	d="
M60.987083,59.451859 
	C60.979443,58.560520 60.977669,58.136143 60.958981,57.394897 
	C61.399406,57.050468 61.856750,57.022900 62.657387,56.994755 
	C64.208351,61.122208 67.947914,63.115108 70.654686,65.961685 
	C72.070358,67.450478 73.357300,65.820602 74.687798,65.335426 
	C78.833717,63.823566 82.317566,60.983788 87.194466,60.878025 
	C100.128616,60.597519 108.670868,67.046478 112.358376,78.546799 
	C114.232773,84.392540 113.918648,90.828362 110.093285,96.265457 
	C106.950348,100.732574 107.538498,104.119987 111.870888,107.482826 
	C116.310493,110.928871 119.380165,115.939522 124.669434,118.937943 
	C126.011971,119.733482 126.260773,120.780701 126.153427,122.339287 
	C122.764526,128.014359 118.032425,132.024124 113.656471,136.323776 
	C111.006279,138.927780 110.474792,141.254349 112.224297,144.679810 
	C117.213638,154.448685 116.040535,163.968460 110.244751,173.062973 
	C104.983704,181.318390 89.604652,186.187653 80.247009,181.760223 
	C74.817848,179.191467 70.480515,178.125824 66.252747,183.265244 
	C65.656746,183.989746 64.409180,183.972610 63.281677,184.764526 
	C62.544540,185.002731 62.087070,184.994339 61.286900,184.954819 
	C60.958267,184.499771 60.972336,184.075851 60.983810,183.333527 
	C61.015732,179.192932 60.425842,175.231674 61.238628,171.582840 
	C62.319313,166.731323 67.633827,168.614929 70.798454,167.396027 
	C86.005081,161.539001 89.205536,141.467209 79.851883,128.915329 
	C77.656204,125.968887 74.390991,124.690971 71.320961,123.118309 
	C68.276863,121.558907 68.280060,119.962158 71.408997,118.933456 
	C82.316338,115.347519 86.294235,102.344719 84.956139,91.862915 
	C83.947334,83.960518 74.182671,73.814545 66.068726,73.193451 
	C61.723782,72.860870 60.642883,71.234169 60.961418,67.395927 
	C61.166920,64.919739 60.995468,62.412266 60.987083,59.451859 
z"/>
<path fill="#E3C947" opacity="1.000000" stroke="none" 
	d="
M125.346825,374.782623 
	C118.556480,370.779572 113.952751,364.600586 108.499542,359.325897 
	C106.516678,357.407898 108.792618,355.531677 109.518646,353.980011 
	C111.266815,350.243805 113.030090,346.789307 113.123672,342.366455 
	C113.398300,329.386475 107.294518,321.300323 96.003525,317.674377 
	C91.023834,316.075226 85.323029,315.886230 80.060951,318.539825 
	C71.447876,322.883270 71.390343,322.783722 64.649094,315.605560 
	C64.090729,315.011017 63.661205,314.295502 63.086876,313.312500 
	C66.826775,312.956512 70.802521,313.574615 74.439102,312.730865 
	C79.218941,311.621857 77.367065,306.326355 78.604500,303.145233 
	C84.519341,287.939728 104.565392,284.800690 117.129982,294.138977 
	C120.573204,296.698059 121.466675,300.927917 124.981148,303.985443 
	C124.981148,286.636627 124.981148,269.287781 124.984970,251.470490 
	C131.442062,255.220871 136.047012,261.398743 141.500259,266.673615 
	C143.483398,268.591858 141.207520,270.467896 140.481537,272.019531 
	C138.733414,275.755798 136.969925,279.210236 136.876328,283.633148 
	C136.601624,296.613586 142.705444,304.699677 153.996475,308.325623 
	C158.976196,309.924805 164.677063,310.113770 169.939163,307.460114 
	C178.553604,303.115936 178.611145,303.215454 185.351105,310.394867 
	C185.909286,310.989471 186.338181,311.705475 186.911926,312.688171 
	C185.181610,315.777710 182.274399,315.006378 179.722778,315.133911 
	C177.033447,315.268341 175.674454,316.278442 174.884659,319.055908 
	C170.336884,335.048676 158.699203,341.029846 143.321930,338.785431 
	C136.933136,337.852966 131.220474,334.468292 127.134941,328.571411 
	C127.148537,341.977051 127.176659,354.951630 127.114143,367.925934 
	C127.103111,370.213165 127.477104,372.641144 125.346825,374.782623 
z"/>
<path fill="#E3C947" opacity="1.000000" stroke="none" 
	d="
M63.467247,185.015015 
	C64.581268,181.363617 67.891312,179.239914 70.570465,176.591949 
	C72.716263,174.471146 74.646309,176.914001 76.333481,177.695297 
	C79.932632,179.362015 83.271408,180.997055 87.495186,181.116211 
	C100.250664,181.475998 108.633987,175.569717 112.279922,164.132431 
	C114.270653,157.887497 114.085289,150.997269 110.017578,145.064560 
	C107.486267,141.372681 107.641922,138.505966 111.383682,135.447754 
	C115.982750,131.688858 120.061440,127.293289 124.688217,123.088150 
	C127.611626,124.668808 127.087746,127.363129 127.103127,129.777527 
	C127.185753,142.753677 127.155602,155.730392 127.128326,169.120667 
	C133.384964,161.824020 141.006699,158.432220 150.485718,158.803146 
	C161.816666,159.246552 170.574326,165.339584 174.288971,177.255890 
	C175.673492,181.697357 177.623428,183.304153 181.925415,182.935394 
	C183.585297,182.793137 185.266281,183.038651 186.782990,184.653305 
	C185.418808,188.637222 182.108398,190.760696 179.429062,193.408295 
	C177.283676,195.528290 175.353256,193.086060 173.666046,192.304504 
	C170.067047,190.637344 166.728165,189.002884 162.504425,188.883774 
	C149.749374,188.524124 141.366028,194.430222 137.720078,205.867599 
	C135.729370,212.112457 135.914673,219.002640 139.982330,224.935257 
	C142.513641,228.627136 142.358261,231.493622 138.616547,234.552078 
	C134.017654,238.311188 129.939453,242.707336 125.312492,246.913086 
	C124.988800,229.329254 124.988800,211.660477 124.988800,193.991699 
	C124.509567,193.817520 124.030327,193.643326 123.551094,193.469147 
	C121.407257,200.884491 116.291977,204.866425 109.595352,207.777451 
	C100.966286,211.528519 83.680244,207.246994 80.391548,197.781845 
	C79.219788,194.409378 76.659294,191.572784 76.867294,187.640289 
	C76.984207,185.429947 75.237289,185.035751 73.414459,185.036636 
	C70.253799,185.038177 67.093140,185.025574 63.467247,185.015015 
z"/>
<path fill="#E2C248" opacity="1.000000" stroke="none" 
	d="
M319.059875,440.648071 
	C318.539673,441.000427 318.082489,441.016449 317.282288,441.060699 
	C316.939270,441.088898 316.953400,441.014008 316.979187,440.985962 
	C316.631195,440.569977 316.296539,440.150818 315.850830,439.330322 
	C315.459503,437.655151 315.262817,436.336609 315.081848,435.027771 
	C313.936218,426.743866 314.870544,425.074921 322.817780,422.443634 
	C339.194580,417.021362 343.212799,400.030579 334.387756,387.043365 
	C332.744202,384.624725 330.254944,383.310425 327.814301,381.853241 
	C322.451294,378.651093 322.199097,375.086304 327.637451,372.354248 
	C339.367950,366.461273 342.547882,350.110840 334.232422,338.831665 
	C331.312164,334.870605 326.848419,333.193542 322.548096,331.571167 
	C315.103302,328.762543 314.199005,327.674225 314.971924,319.709656 
	C315.100037,318.389343 315.541473,317.110718 315.553101,315.366272 
	C315.647217,314.419769 315.799164,313.901642 316.298828,313.088623 
	C317.009247,312.448181 317.508301,312.254486 318.452637,312.216003 
	C320.852142,313.129211 322.647949,314.477417 323.996277,316.069519 
	C326.960022,319.569214 329.833099,319.190125 333.632660,317.332703 
	C343.397766,312.559052 356.449127,314.733551 363.785858,321.903992 
	C371.206451,329.156403 373.550659,342.481201 368.616821,352.416443 
	C366.562744,356.552795 366.968475,359.247192 370.309570,362.417572 
	C374.107697,366.021637 378.635712,369.155853 380.764893,374.719177 
	C381.013763,376.065369 381.016235,377.132843 381.013214,378.600525 
	C373.962921,382.798767 369.583649,389.488647 363.938354,394.802826 
	C362.664642,396.001831 364.071503,397.201111 364.515900,398.400940 
	C366.104919,402.690948 369.048523,406.306976 369.125000,411.371155 
	C369.323700,424.521790 362.619232,432.828583 351.286835,436.396912 
	C346.377838,437.942688 340.910950,437.818329 335.774231,435.190735 
	C326.587372,430.491302 325.043152,431.118744 319.059875,440.648071 
z"/>
<path fill="#E3C947" opacity="1.000000" stroke="none" 
	d="
M381.015137,374.529449 
	C374.557922,370.779175 369.953064,364.601257 364.499817,359.326416 
	C362.516693,357.408112 364.792419,355.532074 365.518463,353.980469 
	C367.266663,350.244232 369.030090,346.789795 369.123688,342.366852 
	C369.398438,329.386353 363.294403,321.300232 352.003571,317.674408 
	C347.023773,316.075226 341.322968,315.886322 336.060852,318.539856 
	C327.446106,322.884033 327.388611,322.784515 320.648987,315.605194 
	C320.090820,315.010590 319.662018,314.294556 319.088379,313.311829 
	C320.818726,310.222290 323.725952,310.993561 326.277557,310.866089 
	C328.967041,310.731720 330.325592,309.721191 331.115387,306.943909 
	C335.663422,290.951202 347.300995,284.970123 362.678253,287.214569 
	C369.066925,288.147064 374.779419,291.531677 378.865112,297.428711 
	C378.851410,284.022583 378.823334,271.048035 378.885895,258.073761 
	C378.896912,255.786530 378.522888,253.358566 380.653168,251.217087 
	C387.443237,255.220505 392.047180,261.399292 397.500397,266.674011 
	C399.483276,268.592010 397.207428,270.468231 396.481415,272.019928 
	C394.733246,275.756134 392.969879,279.210571 392.876282,283.633453 
	C392.601654,296.613647 398.705627,304.699738 409.996429,308.325592 
	C414.976196,309.924774 420.676971,310.113708 425.939026,307.460205 
	C434.552185,303.116821 434.609650,303.216370 441.350922,310.394470 
	C441.909271,310.988983 442.338806,311.704498 442.913147,312.687439 
	C439.173248,313.043427 435.197479,312.425323 431.560913,313.269104 
	C426.781067,314.378113 428.632996,319.673676 427.395508,322.854767 
	C421.480438,338.060547 401.434570,341.199036 388.870117,331.861176 
	C385.426849,329.302094 384.533417,325.072174 381.018982,322.014587 
	C381.018982,339.363373 381.018982,356.712189 381.015137,374.529449 
z"/>
<path fill="#E8E84F" opacity="1.000000" stroke="none" 
	d="
M125.015686,375.396851 
	C125.011383,357.328125 125.011383,339.659912 125.011383,321.991699 
	C125.490601,321.817627 125.969826,321.643524 126.449043,321.469421 
	C128.592621,328.884857 133.708237,332.866577 140.404816,335.777527 
	C149.033997,339.528564 166.318954,335.247314 169.608200,325.782227 
	C170.780151,322.409851 173.340698,319.573364 173.132645,315.640930 
	C173.015701,313.430786 174.761734,313.035767 176.584824,313.036682 
	C179.745422,313.038239 182.906021,313.025543 186.531647,313.015076 
	C187.454605,312.998810 187.912521,312.986298 188.713074,312.948364 
	C189.472519,312.594635 189.943787,312.395905 190.852997,312.375549 
	C196.663269,317.869690 201.750778,319.341217 209.921417,315.970947 
	C219.408936,312.057526 229.723923,315.038269 236.733170,323.176788 
	C243.854980,331.445984 245.381683,341.346436 240.994797,351.670990 
	C238.247604,358.136505 238.115601,358.114258 243.219589,363.180664 
	C246.883728,366.817871 250.589401,370.410797 253.934921,374.867249 
	C254.389053,376.359894 254.301071,377.433899 253.317657,378.700012 
	C246.712570,383.383759 242.005295,389.442657 236.492447,394.655701 
	C234.965103,396.099976 236.336227,396.942566 236.780624,398.066040 
	C238.686737,402.884705 241.268692,407.270660 241.268295,412.947662 
	C241.267883,418.984314 239.095169,423.991394 236.148987,428.595978 
	C233.035934,433.461395 227.456573,435.921722 222.025635,436.798584 
	C216.107590,437.754150 209.853531,437.811066 204.473404,433.689423 
	C201.346191,431.293732 198.393768,431.750854 195.793411,435.109070 
	C194.097321,437.299438 191.766006,438.997955 189.393219,440.994263 
	C184.574814,441.014923 179.794449,441.907318 175.665024,440.654358 
	C170.808273,439.180756 172.442902,433.174347 170.566528,429.378723 
	C163.529205,415.143433 143.395630,413.053772 131.790482,423.133484 
	C128.974991,425.578888 128.429626,429.411774 125.016617,433.263885 
	C125.016617,414.644897 125.016617,397.291565 125.012222,379.469727 
	C125.011887,377.933289 125.015945,376.865326 125.015686,375.396851 
z"/>
<path fill="#DDA344" opacity="1.000000" stroke="none" 
	d="
M252.995239,379.446014 
	C253.002594,377.919586 253.012405,376.864044 253.008209,375.412537 
	C251.399643,372.759613 250.836349,370.234558 250.839279,367.493683 
	C250.853500,354.180695 250.818024,340.867645 250.864151,327.554626 
	C250.865295,327.221832 250.869019,326.888611 250.888687,326.556519 
	C251.026093,324.236359 250.802200,321.451691 253.603683,320.725403 
	C256.241760,320.041473 257.345367,322.637726 258.319641,324.415253 
	C262.264069,331.611877 268.727783,334.503906 276.396332,334.748169 
	C286.210205,335.060699 294.360138,330.250122 298.340790,318.773499 
	C301.126709,310.741486 302.583771,309.978943 311.027405,311.079132 
	C312.013306,311.207581 312.981781,311.476379 314.416260,311.584106 
	C315.438995,311.743652 315.967468,311.982544 316.691498,312.714478 
	C316.957336,313.500763 316.968292,313.925385 316.980347,314.668518 
	C315.961395,315.945740 316.116577,317.674377 315.124542,318.458771 
	C309.961456,322.541351 311.692139,326.674408 313.598175,331.984344 
	C319.340515,347.981415 309.829010,366.071777 290.925171,367.081146 
	C285.661957,367.362183 280.622498,366.783905 276.040100,363.969849 
	C273.321716,362.300537 271.049835,362.865631 268.916199,365.079895 
	C266.145874,367.954865 263.382812,370.848785 260.460449,373.562439 
	C257.692017,376.133118 258.025177,378.295746 260.661865,380.617798 
	C261.906708,381.714081 263.154480,382.861725 264.163055,384.168854 
	C268.716736,390.070435 273.014221,391.210297 280.979858,388.277161 
	C296.878387,382.422882 314.334229,392.732117 315.087036,411.553192 
	C315.283447,416.463135 314.874451,421.224274 312.213501,425.496033 
	C310.312317,428.548035 310.685974,431.126831 313.419250,433.407959 
	C315.019318,434.743347 315.705261,436.636505 316.746002,438.735229 
	C316.986816,439.445526 316.992249,439.878021 317.001343,440.634216 
	C316.579102,440.974274 316.153229,440.990570 315.408752,441.018921 
	C311.263000,440.994263 307.310883,441.549896 303.639191,440.775757 
	C298.690857,439.732391 300.619965,434.385498 299.414398,431.236511 
	C293.567566,415.964264 273.422211,412.822205 260.882996,422.152954 
	C257.440155,424.714813 256.552673,428.953094 252.997711,431.992706 
	C252.997711,414.634094 252.997711,397.275513 252.995239,379.446014 
z"/>
<path fill="#E8E84F" opacity="1.000000" stroke="none" 
	d="
M187.340240,184.993561 
	C183.171906,184.956436 179.195892,185.575119 175.559799,184.730530 
	C170.781982,183.620728 172.632828,178.325775 171.395065,175.144302 
	C165.479691,159.939728 145.421661,156.783035 132.878357,166.150528 
	C129.467972,168.697449 128.359863,172.803986 125.018898,175.985413 
	C125.018898,158.636917 125.018898,141.288406 125.015137,123.471649 
	C125.013817,121.935379 125.016258,120.867378 125.013382,119.398926 
	C125.008064,101.385010 125.008064,83.771538 125.008064,66.146233 
	C127.532646,65.882553 127.262878,67.839478 127.697952,68.764030 
	C134.316132,82.827972 154.067657,84.932037 165.578857,75.292313 
	C169.726517,71.818993 172.129333,66.788788 172.813217,61.561962 
	C173.316849,57.712643 174.738129,56.799725 178.136765,56.980549 
	C181.455322,57.157112 184.791595,57.000450 188.593582,56.959339 
	C192.116180,58.161358 194.097763,60.759705 196.019012,63.124012 
	C198.635223,66.343582 201.279388,66.441368 204.362595,64.444870 
	C214.106216,58.135494 223.645401,60.161201 232.565414,65.798073 
	C237.573196,68.962662 240.035568,74.736465 240.835449,80.408432 
	C241.676254,86.370720 241.670227,92.546219 237.493225,97.928802 
	C235.524094,100.466270 235.509872,103.194794 238.721619,105.815681 
	C243.576447,109.777382 247.830643,114.475136 252.666443,118.942535 
	C254.034180,119.735748 254.279709,120.786507 254.174774,122.352478 
	C250.758881,127.973625 246.067459,131.986801 241.710709,136.274887 
	C239.112595,138.832062 238.392242,141.124237 240.173706,144.579849 
	C245.175491,154.282227 244.087326,163.772934 238.365387,172.870529 
	C234.852341,178.456085 229.214310,181.240952 223.246002,182.559067 
	C217.475388,183.833527 211.283585,184.041122 205.803818,180.792633 
	C201.982941,178.527512 198.759583,178.372787 195.814667,182.157211 
	C194.808395,183.450333 193.181015,184.155060 191.584259,185.417847 
	C190.720184,185.705093 190.211365,185.675766 189.383255,185.288834 
	C188.598404,185.050888 188.141113,185.024628 187.340240,184.993561 
z"/>
<path fill="#DDA344" opacity="1.000000" stroke="none" 
	d="
M252.733566,123.325974 
	C253.003571,121.927437 253.012955,120.871445 253.007568,119.420197 
	C252.992813,101.348755 252.992813,83.672546 252.992813,65.996346 
	C253.500595,65.781395 254.008377,65.566444 254.516144,65.351494 
	C256.393372,73.330589 261.988434,77.205627 268.849091,79.932808 
	C277.594025,83.408989 293.586884,79.413635 297.354980,70.193611 
	C298.776917,66.714317 301.317627,63.712948 301.120026,59.600128 
	C301.014038,57.394478 302.789917,57.017715 304.603363,57.016918 
	C307.764252,57.015530 310.925171,57.004993 314.553589,56.996201 
	C315.448334,57.012344 315.875580,57.030575 316.622559,57.063972 
	C316.955902,57.502766 316.969543,57.926384 316.982330,58.668526 
	C315.961365,59.945705 316.116577,61.674347 315.124542,62.458778 
	C309.961487,66.541351 311.692230,70.674400 313.598236,75.984322 
	C319.340424,91.981392 309.829071,110.071732 290.925140,111.081161 
	C285.661926,111.362198 280.622498,110.783890 276.040100,107.969841 
	C273.321747,106.300507 271.049774,106.865631 268.916138,109.079880 
	C266.145874,111.954849 263.382843,114.848831 260.460419,117.562454 
	C257.691925,120.133118 258.025238,122.295761 260.661865,124.617828 
	C261.906677,125.714119 263.154480,126.861755 264.163055,128.168900 
	C268.716705,134.070541 273.014282,135.210358 280.979858,132.277161 
	C296.878052,126.422890 314.334259,136.731979 315.087036,155.553146 
	C315.283417,160.463104 314.874420,165.224258 312.213470,169.496002 
	C310.312378,172.547974 310.685730,175.126831 313.419220,177.407913 
	C315.019379,178.743271 315.705170,180.636520 316.746033,182.735245 
	C316.976959,183.437744 316.972473,183.862411 316.957153,184.605438 
	C316.648621,185.450150 316.231415,185.852127 315.270996,186.244568 
	C313.183746,186.453934 311.569214,186.912888 309.913727,187.062103 
	C302.207092,187.756744 300.901672,186.985352 298.459076,179.580185 
	C294.374847,167.197922 285.186249,162.094971 274.286926,163.377441 
	C268.009155,164.116089 262.057098,166.610107 258.794464,172.856766 
	C258.327698,173.750443 257.714081,174.530365 257.123413,175.333954 
	C256.210388,176.576202 255.211639,177.814240 253.466293,177.290833 
	C251.837631,176.802368 251.287506,175.336746 251.060181,173.799896 
	C250.816238,172.150757 250.850220,170.479538 250.848007,168.815399 
	C250.831665,156.499359 250.864166,144.183243 250.824127,131.867340 
	C250.814804,128.998398 251.026306,126.221855 252.733566,123.325974 
z"/>
<path fill="#E8E84F" opacity="1.000000" stroke="none" 
	d="
M314.732727,185.247070 
	C315.445801,184.988403 315.875000,184.970993 316.625244,184.938690 
	C317.403351,184.951859 317.860321,184.979935 318.660492,185.009644 
	C322.828430,185.043610 326.804474,184.424774 330.440460,185.269547 
	C335.217926,186.379532 333.367157,191.674377 334.604980,194.855957 
	C340.520630,210.060516 360.565613,213.199173 373.130249,203.860901 
	C376.573425,201.301880 377.466675,197.072006 380.981110,194.014587 
	C380.981110,211.363083 380.981110,228.711578 380.984863,246.528351 
	C380.985779,248.065079 380.982971,249.133530 380.984375,250.602676 
	C380.988617,268.671570 380.988617,286.339783 380.988617,304.007965 
	C380.509399,304.182190 380.030212,304.356415 379.550995,304.530640 
	C377.407288,297.115356 372.291901,293.133575 365.595337,290.222534 
	C356.966400,286.471497 339.680695,290.752930 336.391907,300.217621 
	C335.220062,303.589935 332.659271,306.426361 332.867432,310.358826 
	C332.984406,312.568817 331.238678,312.964264 329.415466,312.963348 
	C326.254852,312.961731 323.094238,312.974426 319.468628,312.984924 
	C318.546265,312.997437 318.088898,313.006165 317.288940,313.045532 
	C316.517609,313.059509 316.088837,313.042847 315.338318,313.010193 
	C313.931793,311.872070 312.025116,312.030273 311.125732,310.873016 
	C307.326294,305.984344 303.427216,307.503601 298.481110,309.412354 
	C282.460144,315.595032 263.546417,305.858978 262.894135,286.529877 
	C262.722076,281.431274 263.279144,276.566162 265.971191,272.149048 
	C267.771484,269.195129 266.979004,266.944092 264.641632,264.670166 
	C260.359131,260.503815 256.060669,256.338501 252.103043,251.332443 
	C251.549515,249.967316 251.571884,248.915863 251.783722,247.477295 
	C255.420792,242.012543 259.998444,237.868927 264.407928,233.602600 
	C267.112152,230.986221 267.455750,228.622528 265.741028,225.239136 
	C261.384186,216.642563 261.947357,208.147919 266.252930,199.462753 
	C271.485352,188.907883 286.457977,184.007751 297.311462,188.109177 
	C302.847504,190.201172 307.338043,192.182098 311.756592,186.730621 
	C312.344330,186.005478 313.597809,186.025604 314.732727,185.247070 
z"/>
<path fill="#DFB244" opacity="1.000000" stroke="none" 
	d="
M316.987183,182.546356 
	C313.520905,181.459900 311.570221,178.202576 308.853943,175.809311 
	C306.400696,173.647797 308.584961,171.547119 309.493347,170.082001 
	C312.426086,165.351990 313.233582,160.390305 313.067841,154.933578 
	C312.775482,145.306824 304.215942,134.488510 294.622223,133.213303 
	C288.797668,132.439117 282.604401,131.960907 277.334778,135.794403 
	C273.491638,138.590149 270.471008,138.371628 267.319763,134.478973 
	C264.406189,130.879929 260.908722,127.728722 257.495026,124.567513 
	C254.867645,122.134453 254.625946,120.104584 257.374390,117.546135 
	C261.388428,113.809570 265.303650,109.945442 268.998535,105.896187 
	C270.946442,103.761421 272.606018,103.762344 275.006683,104.951454 
	C278.945221,106.902298 282.638794,109.065781 287.488892,109.151207 
	C300.402100,109.378639 308.609863,103.454277 312.299316,92.083038 
	C313.921265,87.084061 314.121033,81.381264 311.474548,76.113388 
	C307.130188,67.465889 307.217316,67.415184 314.379425,60.664227 
	C314.974792,60.103024 315.685150,59.663818 316.661774,59.077488 
	C317.015991,62.809139 316.425018,66.770836 317.239197,70.418922 
	C318.321228,75.267113 323.634674,73.385117 326.799988,74.604691 
	C342.005585,80.463348 345.205414,100.532959 335.851410,113.085175 
	C333.655762,116.031525 330.390442,117.309151 327.320557,118.881889 
	C324.276215,120.441574 324.280762,122.037849 327.409180,123.066666 
	C338.316376,126.653664 342.294037,139.653854 340.956177,150.136536 
	C339.947693,158.038376 330.183289,168.184814 322.069855,168.806534 
	C317.726654,169.139343 316.642273,170.763062 316.961334,174.602737 
	C317.167114,177.078827 316.995483,179.586258 316.987183,182.546356 
z"/>
<path fill="#DDA344" opacity="1.000000" stroke="none" 
	d="
M253.267212,246.672333 
	C252.996475,248.074493 252.987122,249.132416 252.991791,250.586884 
	C254.600876,253.241852 255.164703,255.769089 255.161880,258.510803 
	C255.148117,271.830719 255.184647,285.150696 255.136551,298.470642 
	C255.134750,298.970154 255.123840,299.470001 255.091675,299.968323 
	C254.951111,302.145508 254.971832,304.629669 252.365158,305.280090 
	C249.928467,305.888092 248.803299,303.651062 247.918930,301.984680 
	C243.769913,294.166748 236.834335,291.115692 228.577301,291.280334 
	C218.487106,291.481506 211.624344,296.210907 207.650375,307.305420 
	C204.777344,315.326355 201.139114,316.978058 193.041351,314.129333 
	C192.568146,313.962860 192.116287,313.756439 191.327667,313.267273 
	C190.554657,312.988342 190.125916,312.970856 189.376419,312.938141 
	C189.042648,312.498810 189.029617,312.074738 189.017578,311.331787 
	C190.038605,310.054230 189.883438,308.325653 190.875473,307.541229 
	C196.038528,303.458649 194.307800,299.325531 192.401764,294.015625 
	C186.659592,278.018799 196.170822,259.928192 215.074890,258.918884 
	C220.338089,258.637878 225.377533,259.216003 229.959946,262.030182 
	C232.678268,263.699524 234.950241,263.134399 237.083847,260.920135 
	C239.854126,258.045135 242.617203,255.151215 245.539612,252.437561 
	C248.308060,249.866867 247.974777,247.704224 245.338104,245.382141 
	C244.093307,244.285873 242.845505,243.138245 241.836929,241.831100 
	C237.283264,235.929504 232.985779,234.789627 225.020142,237.722824 
	C209.121887,243.577118 191.665817,233.268021 190.912949,214.446854 
	C190.716553,209.536896 191.125488,204.775742 193.786499,200.503983 
	C195.687637,197.452042 195.314224,194.873184 192.580811,192.592087 
	C190.980652,191.256714 190.294785,189.363510 189.253998,187.264771 
	C189.020721,186.561874 189.022873,186.136810 189.040344,185.394440 
	C189.483963,185.060211 189.912247,185.043274 190.661957,185.010254 
	C193.848236,182.874908 197.130066,182.768234 200.509674,182.907669 
	C204.166916,183.058533 206.197052,184.729416 207.148438,188.386307 
	C209.249008,196.460205 213.339218,202.744736 221.882706,205.744553 
	C230.483643,208.764557 242.625916,205.055557 247.182449,197.165558 
	C247.684570,196.296097 248.240646,195.475998 248.836319,194.675461 
	C249.753708,193.442612 250.757690,192.211609 252.504349,192.712814 
	C254.148560,193.184586 254.696243,194.641815 254.933685,196.176819 
	C255.188782,197.825851 255.150253,199.497803 255.152679,201.162262 
	C255.170639,213.483276 255.137497,225.804367 255.177200,238.125244 
	C255.186447,240.995178 254.974548,243.773178 253.267212,246.672333 
z"/>
<path fill="#DFB244" opacity="1.000000" stroke="none" 
	d="
M189.012756,187.453644 
	C192.478989,188.540237 194.429901,191.797333 197.146088,194.190689 
	C199.599258,196.352249 197.414978,198.452850 196.506577,199.918045 
	C193.573975,204.648102 192.766434,209.609802 192.932190,215.066528 
	C193.224640,224.693466 201.784058,235.511459 211.377884,236.786682 
	C217.202454,237.560883 223.395767,238.039169 228.665298,234.205505 
	C232.508667,231.409378 235.529160,231.628830 238.680328,235.521164 
	C241.594009,239.120102 245.091370,242.271408 248.505081,245.432602 
	C251.132584,247.865753 251.373840,249.895615 248.625565,252.453979 
	C244.611542,256.190582 240.696198,260.054626 237.001389,264.103943 
	C235.053391,266.238861 233.393707,266.237549 230.993225,265.048584 
	C227.054672,263.097748 223.361191,260.934204 218.511108,260.848785 
	C205.598099,260.621368 197.390274,266.545471 193.700699,277.916962 
	C192.078735,282.915955 191.879105,288.618683 194.525482,293.886597 
	C198.869659,302.534119 198.782501,302.584839 191.620590,309.335754 
	C191.025223,309.896973 190.314896,310.336182 189.338272,310.922485 
	C188.984055,307.190857 189.575073,303.229126 188.760864,299.581055 
	C187.678787,294.732941 182.365326,296.614838 179.200012,295.395294 
	C163.994400,289.536774 160.794571,269.466797 170.148560,256.914825 
	C172.344254,253.968445 175.609589,252.690903 178.679474,251.118118 
	C181.723862,249.558411 181.719131,247.961899 178.590820,246.933304 
	C167.684158,243.347137 163.705917,230.346313 165.043823,219.863403 
	C166.052292,211.961685 175.816742,201.815155 183.930206,201.193436 
	C188.273392,200.860626 189.357758,199.236862 189.038696,195.397232 
	C188.832932,192.921158 189.004486,190.413727 189.012756,187.453644 
z"/>
<path fill="#DFB244" opacity="1.000000" stroke="none" 
	d="
M316.987183,438.546356 
	C313.521088,437.459656 311.570099,434.202698 308.853851,431.809357 
	C306.400635,429.647736 308.584991,427.547119 309.493408,426.081970 
	C312.426025,421.351929 313.233582,416.390259 313.067871,410.933502 
	C312.775482,401.306885 304.215820,390.488556 294.622162,389.213318 
	C288.797577,388.439026 282.604309,387.960846 277.334747,391.794464 
	C273.491455,394.590363 270.470947,394.371277 267.319733,390.478882 
	C264.406067,386.879913 260.908630,383.728668 257.494904,380.567474 
	C254.867462,378.134399 254.625992,376.104431 257.374359,373.546082 
	C261.388428,369.809479 265.303741,365.945435 268.998627,361.896179 
	C270.946533,359.761414 272.605988,359.762299 275.006714,360.951416 
	C278.945190,362.902313 282.638733,365.065796 287.488831,365.151245 
	C300.402222,365.378723 308.609863,359.454132 312.299347,348.083069 
	C313.921326,343.084106 314.121033,337.381317 311.474487,332.113434 
	C307.130066,323.465820 307.217224,323.415070 314.379364,316.664276 
	C314.974762,316.103058 315.685120,315.663849 316.661774,315.077515 
	C317.015991,318.809174 316.424988,322.770874 317.239197,326.418945 
	C318.321259,331.267090 323.634674,329.385071 326.799988,330.604645 
	C342.005981,336.463440 345.205170,356.533356 335.851562,369.085175 
	C333.655914,372.031555 330.390503,373.309082 327.320587,374.881805 
	C324.276215,376.441467 324.280823,378.038208 327.409180,379.066742 
	C338.315765,382.652557 342.294189,395.654144 340.956177,406.136627 
	C339.947601,414.038361 330.183105,424.184967 322.069855,424.806580 
	C317.726685,425.139343 316.642273,426.763031 316.961365,430.602722 
	C317.167114,433.078796 316.995483,435.586273 316.987183,438.546356 
z"/>
<path fill="#E49C48" opacity="1.000000" stroke="none" 
	d="
M191.065582,313.331879 
	C194.808380,312.975128 198.775909,313.577972 202.423172,312.757385 
	C207.259003,311.669373 205.383942,306.355621 206.612061,303.182556 
	C212.512222,287.938477 232.612701,284.829803 245.141586,294.176025 
	C248.570496,296.733917 249.473572,300.955566 253.002335,303.985565 
	C253.002335,286.631683 253.002335,269.277832 253.004074,251.453690 
	C259.271118,255.366653 263.945892,261.420135 269.453949,266.597382 
	C270.947357,268.001099 269.645111,268.822144 269.275818,269.988556 
	C267.867767,274.436432 264.881836,278.110443 264.725983,283.294983 
	C264.536377,289.602936 266.432861,294.971283 269.389832,300.049866 
	C272.370605,305.169342 277.974731,307.542480 283.215240,308.695007 
	C288.659271,309.892303 294.950836,310.299438 299.951385,306.656769 
	C304.607819,303.264832 308.032501,303.576904 311.246063,308.316376 
	C312.247955,309.794037 313.639160,311.007690 314.934357,312.668152 
	C311.191589,313.024841 307.224091,312.421967 303.576843,313.242615 
	C298.741150,314.330627 300.616089,319.644348 299.387939,322.817413 
	C293.487671,338.061676 273.387085,341.170135 260.858398,331.823944 
	C257.429535,329.266022 256.526337,325.044464 252.997665,322.014465 
	C252.997665,339.368317 252.997665,356.722198 252.995926,374.546326 
	C246.728821,370.633423 242.054169,364.579803 236.546112,359.402588 
	C235.052704,357.998901 236.354874,357.177795 236.724152,356.011414 
	C238.132294,351.563599 241.118210,347.889587 241.274002,342.705017 
	C241.463547,336.397095 239.567169,331.028717 236.610107,325.950165 
	C233.629227,320.830750 228.025223,318.457489 222.784668,317.304993 
	C217.340607,316.107758 211.049057,315.700500 206.048523,319.343201 
	C201.392075,322.735291 197.967453,322.422974 194.753906,317.683594 
	C193.751999,316.205963 192.360764,314.992340 191.065582,313.331879 
z"/>
<path fill="#E49C48" opacity="1.000000" stroke="none" 
	d="
M253.331879,246.934402 
	C253.005814,229.342026 253.005814,211.667465 253.005814,193.992920 
	C252.497711,193.778473 251.989609,193.564041 251.481506,193.349594 
	C249.608414,201.332001 244.010178,205.204117 237.149826,207.931824 
	C228.408096,211.407578 212.413986,207.413620 208.646301,198.193115 
	C207.224701,194.714081 204.683014,191.713379 204.881454,187.600662 
	C204.987854,185.395706 203.214005,185.016556 201.399811,185.015900 
	C198.239044,185.014740 195.078278,185.004242 191.450439,184.995926 
	C192.685898,181.466446 196.043350,179.435181 198.522964,176.613327 
	C199.826813,175.129517 200.687042,176.226669 201.903854,176.671219 
	C206.584976,178.381485 210.657272,181.216217 216.194229,181.301743 
	C222.397995,181.397583 227.562469,179.271729 232.349289,176.340851 
	C237.430984,173.229446 239.911591,167.505951 240.811996,161.916779 
	C241.762634,156.015976 241.797638,149.800842 237.684174,144.428635 
	C235.551987,141.643997 235.473251,138.898529 238.777481,136.152847 
	C243.583023,132.159622 247.847153,127.514832 252.668167,123.065659 
	C252.994186,140.657990 252.994186,158.332535 252.994186,176.007080 
	C253.502289,176.221512 254.010376,176.435944 254.518478,176.650375 
	C256.391632,168.668045 261.989807,164.795837 268.850189,162.068176 
	C277.592316,158.592331 293.585968,162.586548 297.353729,171.806885 
	C298.775360,175.285919 301.317017,178.286667 301.118561,182.399384 
	C301.012207,184.604355 302.786041,184.983475 304.600220,184.984116 
	C307.760986,184.985260 310.921753,184.995743 314.549561,185.004059 
	C313.314209,188.533615 309.956543,190.564713 307.477081,193.386658 
	C306.173248,194.870575 305.312927,193.773315 304.096130,193.328781 
	C299.414978,191.618607 295.342804,188.783798 289.805817,188.698212 
	C283.601990,188.602325 278.437592,190.728333 273.650757,193.659119 
	C268.569031,196.770477 266.088562,202.493973 265.187988,208.083191 
	C264.237152,213.984085 264.202545,220.199081 268.315796,225.571304 
	C270.447937,228.356018 270.526642,231.101456 267.222473,233.847137 
	C262.416992,237.840439 258.152893,242.485260 253.331879,246.934402 
z"/>
</svg>